<svg id="Capa_1" enable-background="new 0 0 512 512" height="512" viewBox="0 0 512 512" width="512" xmlns="http://www.w3.org/2000/svg"><g><path d="m31 437v75h210v-75c0-24.814-20.186-45-45-45h-120c-24.814 0-45 20.186-45 45z"/><circle cx="136" cy="332" r="60"/><path d="m271 437v75h210v-75c0-24.814-20.186-45-45-45h-120c-24.814 0-45 20.186-45 45z"/><circle cx="376" cy="332" r="60"/><path d="m61 90c0 49.629 40.371 90 90 90v67.427l80.449-67.427h49.102l80.449 67.427v-67.427c49.629 0 90-40.371 90-90s-40.371-90-90-90h-210c-49.629 0-90 40.371-90 90zm240-15h30v30h-30zm-60 0h30v30h-30zm-60 0h30v30h-30z"/></g></svg>