<svg xmlns="http://www.w3.org/2000/svg" width="24" height="24" viewBox="0 0 14 14"><path fill="currentColor" fill-rule="evenodd" d="M6.998.046A6.954 6.954 0 1 1 4.099 13.32l-3.466.627a.5.5 0 0 1-.556-.668l.994-2.646A6.954 6.954 0 0 1 6.998.046m-.379 4.399A.995.995 0 1 1 7 6.36a.625.625 0 0 0-.625.625v1.08a.625.625 0 1 0 1.25 0V7.52a2.245 2.245 0 1 0-2.87-2.157a.625.625 0 0 0 1.25 0a.995.995 0 0 1 .614-.919ZM7 11.39a.895.895 0 0 1 .002-1.79h.002a.895.895 0 0 1-.002 1.79z" clip-rule="evenodd"/></svg>