<svg height="512" viewBox="0 0 24 24" width="512" xmlns="http://www.w3.org/2000/svg"><g id="Layer_2" data-name="Layer 2"><path d="m11.989 22.751a10.607 10.607 0 0 1 -5.152-1.333.254.254 0 0 0 -.192-.028l-2.651.795a1.751 1.751 0 0 1 -2.179-2.18l.8-2.649a.252.252 0 0 0 -.028-.192 10.733 10.733 0 0 1 7.639-15.771 10.755 10.755 0 0 1 4.074 21.114 11.178 11.178 0 0 1 -2.311.244zm-5.283-2.871a1.772 1.772 0 0 1 .855.224 9.246 9.246 0 1 0 2.9-17.23 9.233 9.233 0 0 0 -6.561 13.565 1.737 1.737 0 0 1 .151 1.348l-.795 2.65a.249.249 0 0 0 .311.311l2.65-.8a1.7 1.7 0 0 1 .489-.068z"/><path d="m11.927 14.75a.75.75 0 0 1 -.75-.75v-.742a2.355 2.355 0 0 1 1.429-2.174 1.73 1.73 0 0 0 .579-.386 1.742 1.742 0 0 0 .475-.621 1.568 1.568 0 0 0 -.016-1.094 1.84 1.84 0 0 0 -1.111-1.137 1.607 1.607 0 0 0 -1.045.081 2.459 2.459 0 0 0 -1.249 1.753.75.75 0 0 1 -1.478-.258 3.956 3.956 0 0 1 2.158-2.883 3.084 3.084 0 0 1 2.019-.139 3.277 3.277 0 0 1 2.125 2.1 3.04 3.04 0 0 1 -.014 2.145 3.224 3.224 0 0 1 -.865 1.174 3.2 3.2 0 0 1 -.993.649.854.854 0 0 0 -.514.792v.74a.75.75 0 0 1 -.75.75z"/><circle cx="12" cy="16.5" r="1"/></g></svg>