<svg id="Layer_1" enable-background="new 0 0 512 512" height="512" viewBox="0 0 512 512" width="512" xmlns="http://www.w3.org/2000/svg"><g><g><g><path d="m512 256c0 56.5-18.31 108.72-49.31 151.06-46.57 63.62-121.81 39.523-206.69 39.523s-160.12 24.097-206.69-39.523c-31-42.34-49.31-94.56-49.31-151.06 0-141.38 114.62-256 256-256s256 114.62 256 256z" fill="#ffea92"/></g></g><path d="m256 446.583c84.88 0 160.12 24.097 206.69-39.523 31-42.34 49.31-94.56 49.31-151.06 0-11.408-.757-22.638-2.203-33.651l-165.878-165.877-187.17 163.448 35.352 35.645c4.304 15.708 5.312 12.803 16.898 23.268l-4.999 64.167-70.667 24c-41.82 0-84.023 40.06-84.023 40.06 46.57 63.62 121.81 39.523 206.69 39.523z" fill="#f7d854"/><g><path d="m199.97 260.488h112.06v118.84h-112.06z" fill="#f7a969"/><path d="m256 260.491h56.03v118.84h-56.03z" fill="#ea8d4e"/><path d="m134.563 332.292h242.875v114.294h-242.875z" fill="#ffbf85"/><path d="m256 332.292h121.44v114.291h-121.44z" fill="#f7a969"/><path d="m462.69 407.06c-46.57 63.62-121.81 104.94-206.69 104.94s-160.12-41.32-206.69-104.94c1.28-41.51 35.34-74.77 77.16-74.77h73.5l56.03 47.041 56.03-47.041h73.51c41.83 0 75.88 33.25 77.15 74.77z" fill="#7b7284"/><path d="m462.69 407.06c-46.57 63.62-121.81 104.94-206.69 104.94v-132.669l56.03-47.041h73.51c4.08 0 8.09.32 11.99.93 36.17 5.63 64.01 36.37 65.16 73.84z" fill="#635a6d"/><path d="m349.62 151.149c-3.955-60.043-52.523-82.233-93.62-82.233s-89.665 22.19-93.62 82.233c-10.628 2.055-18.177 15.995-16.988 27.265l1.822 25.648c1.247 11.835 11.65 20.476 23.115 19.19l1.977-.214c23.485 63.063 60.316 69.638 83.694 73.33 23.378-3.692 60.209-10.267 83.694-73.33l1.977.214c11.465 1.286 21.868-7.354 23.115-19.19l1.822-25.648c1.189-11.27-6.36-25.21-16.988-27.265z" fill="#ffbf85"/><path d="m366.609 178.414-1.822 25.648c-1.247 11.835-11.65 20.476-23.115 19.19l-1.977-.214c-8.027 21.528-17.602 36.48-27.664 46.971-19.404 20.242-40.629 23.924-56.03 26.359v-227.452c41.097 0 89.665 22.19 93.62 82.233 10.627 2.055 18.176 15.995 16.988 27.265z" fill="#f7a969"/><path d="m275.826 204.523c-11.431-9.719-28.221-9.719-39.652 0-12.748 10.838-28.758 17.094-45.477 17.771l-18.392.744 1.233 7.414c6.705 40.322 41.586 69.882 82.461 69.882 41.791-2.318 76.381-33.318 83.247-74.606l.447-2.69-18.392-.744c-16.717-.677-32.727-6.933-45.475-17.771z" fill="#efebdc"/><path d="m339.69 223.04-.44 2.69c-3.43 20.65-12.49 39.84-27.22 53.04s-35.13 20.41-56.03 21.56v-103.1c7.06 0 14.12 2.43 19.83 7.29 12.74 10.84 28.75 17.1 45.47 17.77z" fill="#d6cfbd"/><path d="m385.13 332.29v144.79c-37.91 22.2-82.03 34.92-129.13 34.92s-91.22-12.72-129.13-34.92v-144.79h40.24v83.61h177.78v-83.61z" fill="#4cd3aa"/><path d="m385.13 332.29v144.79c-37.91 22.2-82.03 34.92-129.13 34.92v-96.1h88.89v-83.61z" fill="#26b290"/><path d="m279.69 28h-47.38c-45.924 0-84.397 35.997-86.043 81.891-.195 5.441.128 10.908 1.011 16.32 3.04 20.832 10.918 40.662 23.003 57.901l2.025 2.888 13.682-67.75c9.029 8.863 23.177 18.373 44.346 22.417l-2-25s39.167 25.167 66.667 22.667l-6.526-24.076.006.001c23.38 5.192 41.507 23.671 46.248 47.146l4.965 24.595 2.025-2.888c12.085-17.238 19.963-37.069 23.003-57.901.884-5.412 1.207-10.879 1.012-16.32-1.648-45.894-40.121-81.891-86.044-81.891z" fill="#494949"/><path d="m364.72 126.21c-3.04 20.83-10.92 40.66-23 57.9l-2.03 2.89-4.96-24.59c-4.74-23.48-22.87-41.96-46.25-47.15h-.01l6.53 24.07c-12.18 1.11-26.66-3.21-39-8.37v-102.96h23.69c45.92 0 84.4 36 86.04 81.89.2 5.44-.12 10.91-1.01 16.32z" fill="#333"/></g></g></svg>