<svg id="Layer_1" enable-background="new 0 0 512 512" height="512" viewBox="0 0 512 512" width="512" xmlns="http://www.w3.org/2000/svg"><g><g><g><path d="m512 256c0 56.5-18.31 108.72-49.31 151.06-46.57 63.62-121.81 39.523-206.69 39.523s-160.12 24.097-206.69-39.523c-31-42.34-49.31-94.56-49.31-151.06 0-141.38 114.62-256 256-256s256 114.62 256 256z" fill="#584b66"/></g></g><path d="m256 446.583c84.88 0 160.12 24.097 206.69-39.523 31-42.34 49.31-94.56 49.31-151.06 0-11.87-.826-23.545-2.39-34.985l-160.939-160.939-223.216 389.497c38.224 4.613 82.863-2.99 130.545-2.99z" fill="#3d3449"/><path d="m414.649 265.864-1.806-1.361c-16.217-12.215-20.568-34.717-10.073-52.097 9.282-15.371 7.059-35.064-5.416-47.979l-35.507-36.76h-206.556l-35.507 36.76c-12.475 12.915-14.698 32.608-5.416 47.979 10.495 17.38 6.145 39.882-10.072 52.097l-1.806 1.361c-13.158 9.911-18.805 26.933-14.182 42.743l12.983 44.393h314.556l12.983-44.393c4.624-15.811-1.023-32.833-14.181-42.743z" fill="#ffea92"/><path d="m428.83 308.61-9.23 31.57-3.75 12.82h-159.85v-225.33h105.85l13.39 13.87 22.11 22.89c7.33 7.58 11.12 17.5 11.12 27.52 0 7.03-1.87 14.11-5.7 20.46-10.5 17.38-6.14 39.88 10.07 52.09l1.81 1.36c13.16 9.91 18.8 26.94 14.18 42.75z" fill="#f7d854"/><path d="m199.97 260.488h112.06v118.84h-112.06z" fill="#ffbb7d"/><path d="m256 260.491h56.03v118.84h-56.03z" fill="#efa36a"/><path d="m385.54 332.29h-73.51v.002h-112.06v-.002h-73.5c-7.729 0-9.929 13.346-16.97 15.46-6.718 2.017-18.315-7.285-24.126-3.623-21.051 13.263-35.246 36.415-36.064 62.933 46.57 63.62 121.81 104.94 206.69 104.94s160.12-41.32 206.69-104.94c-1.27-41.52-35.32-74.77-77.15-74.77z" fill="#ffd4a6"/><path d="m462.69 407.06c-46.57 63.62-121.81 104.94-206.69 104.94v-179.71h129.54c7.552 0 8.312 13.44 15.21 15.46 6.897 2.02 19.932-7.378 25.881-3.631 21.054 13.26 35.248 36.413 36.059 62.941z" fill="#ffbb7d"/><path d="m349.62 151.149c-3.955-60.043-52.523-82.233-93.62-82.233s-89.666 22.19-93.62 82.233c-10.627 2.055-18.177 15.995-16.988 27.265l1.822 25.648c1.247 11.835 11.65 20.476 23.115 19.19l1.977-.214c23.485 63.063 60.316 69.638 83.694 73.33 23.378-3.692 60.209-10.267 83.694-73.33l1.977.214c11.465 1.286 21.868-7.354 23.115-19.19l1.822-25.648c1.189-11.27-6.36-25.21-16.988-27.265z" fill="#ffd4a6"/><path d="m366.609 178.414-1.822 25.648c-1.247 11.835-11.65 20.476-23.115 19.19l-1.977-.214c-8.026 21.528-17.602 36.48-27.664 46.971-19.404 20.242-40.63 23.924-56.03 26.359v-227.452c41.097 0 89.665 22.19 93.62 82.233 10.627 2.055 18.176 15.995 16.988 27.265z" fill="#ffbb7d"/><path d="m275.826 204.523c-11.431-9.719-28.221-9.719-39.652 0-12.748 10.838-28.758 17.094-45.477 17.771l-18.392.744 1.233 7.414c6.705 40.322 41.586 69.882 82.461 69.882 41.791-2.318 76.381-33.318 83.247-74.606l.447-2.69-18.392-.744c-16.717-.677-32.727-6.933-45.475-17.771z" fill="#efebdc"/><path d="m339.69 223.04-.44 2.69c-3.43 20.65-12.49 39.84-27.22 53.04s-35.13 20.41-56.03 21.56v-103.1c7.06 0 14.12 2.43 19.83 7.29 12.74 10.84 28.75 17.1 45.47 17.77z" fill="#d6cfbd"/><path d="m426.63 344.12-30.96 64.21v62.23c-40.16 26.21-88.14 41.44-139.67 41.44s-99.51-15.23-139.67-41.44v-62.23l-30.96-64.21c11.79-7.42 25.73-11.75 40.67-11.83l46.596 47.775c9.939 10.19 21.661 18.472 34.587 24.434 30.951 14.277 66.604 14.277 97.555 0 12.926-5.962 24.648-14.244 34.587-24.434l46.595-47.775c14.95.08 28.89 4.4 40.67 11.83z" fill="#ff57cc"/><path d="m426.63 344.12-30.96 64.21v62.23c-40.16 26.21-88.14 41.44-139.67 41.44v-96.79c16.65 0 33.3-3.57 48.78-10.71 6.46-2.98 12.62-6.54 18.41-10.63s11.21-8.71 16.17-13.8l26.4-27.07 20.2-20.71c12.08.06 23.49 2.9 33.64 7.89 2.42 1.2 4.77 2.51 7.03 3.94z" fill="#e224ba"/><path d="m164.814 172.596 7.492 8.071 27.664-62.667s25.786 35.191 73.786 36.524l.578-29.857s52 58.667 92.398 64c0 0 8.39-17.011 8.518-44.417.188-40.25-10.25-117.75-119.25-117.75-71.153 0-105.349 34.816-112.687 73.33-4.994 26.213 3.346 53.209 21.501 72.766z" fill="#ffea92"/><path d="m375.25 144.25c-.13 27.41-8.52 44.42-8.52 44.42-34.88-4.61-78.41-48.97-89.65-61-1.78-1.91-2.75-3-2.75-3l-.06 3-.51 26.85c-6.31-.17-12.23-.93-17.76-2.13v-125.89c106.6 0 118.93 74.13 119.24 115.04.01.92.01 1.82.01 2.71z" fill="#f7d854"/></g></svg>