<svg id="Layer_1" enable-background="new 0 0 512 512" height="512" viewBox="0 0 512 512" width="512" xmlns="http://www.w3.org/2000/svg"><g><g><g><path d="m512 256c0 58.01-19.3 111.51-51.82 154.44-46.74 61.7-120.81-7.44-204.18-7.44s-157.44 69.14-204.18 7.44c-32.52-42.93-51.82-96.43-51.82-154.44 0-141.38 114.62-256 256-256s256 114.62 256 256z" fill="#4cd3aa"/></g></g><path d="m256 403c83.37 0 157.44 69.14 204.18 7.44 32.52-42.93 51.82-96.43 51.82-154.44 0-11.092-.707-22.018-2.076-32.738l-173.921-173.921-187.72 91.138 18.239 18.249-13.03 48.28 36.438 36.311c4.272 15.409 27.832 15.846 39.141 26.205l-12.571 106.557-164.68 34.359c46.74 61.7 120.81-7.44 204.18-7.44z" fill="#26b290"/><g><path d="m199.97 257.238h112.06v118.84h-112.06z" fill="#ffbb7d"/><path d="m256 257.241h56.03v118.84h-56.03z" fill="#efa36a"/><path d="m256 362.691h-75.333v-41.983h52.367c12.684 0 22.967 10.283 22.967 22.967v19.016z" fill="#ffea92"/><path d="m256 362.691h75.333v-41.983h-52.367c-12.684 0-22.967 10.283-22.967 22.967v19.016z" fill="#f7d854"/><path d="m460.18 410.44c-46.74 61.7-120.81 101.56-204.18 101.56s-157.44-39.86-204.18-101.56c8.73-33.06 38.85-57.44 74.65-57.44h259.07c35.81 0 65.92 24.37 74.64 57.44z" fill="#4779f4"/><path d="m460.18 410.44c-46.74 61.7-120.81 101.56-204.18 101.56v-159h129.54c35.81 0 65.92 24.37 74.64 57.44z" fill="#2357cc"/><path d="m306.155 396.725h78.181v35.487h-78.181z" fill="#d6cfbd"/><path d="m349.62 140.899c-3.955-60.043-52.523-82.233-93.62-82.233s-89.666 22.19-93.62 82.233c-10.628 2.055-18.177 15.995-16.988 27.265l1.822 25.648c1.247 11.835 11.65 20.476 23.115 19.19l1.977-.214c23.485 63.063 60.316 69.638 83.694 73.33 23.378-3.692 60.209-10.267 83.694-73.33l1.977.214c11.465 1.286 21.868-7.354 23.115-19.19l1.822-25.648c1.189-11.27-6.36-25.21-16.988-27.265z" fill="#ffd4a6"/><path d="m366.609 168.164-1.822 25.648c-1.247 11.835-11.65 20.476-23.115 19.19l-1.977-.214c-8.027 21.528-17.602 36.48-27.664 46.971-19.405 20.241-40.631 23.923-56.031 26.358v-227.451c41.097 0 89.665 22.19 93.62 82.233 10.628 2.055 18.177 15.995 16.989 27.265z" fill="#ffbb7d"/><path d="m273.382 36.308-17.382-.891-17.382.891c-32.514 1.667-61.629 21.662-73.736 51.884-6.714 16.76-8.086 35.861-2.502 54.707l9.926 37.184 15.361-34h68.333 68.333l15.361 34 9.926-37.184c5.585-18.846 4.213-37.947-2.502-54.707-12.106-30.223-41.221-50.218-73.736-51.884z" fill="#d36c18"/><path d="m353.09 119.09c0 7.85-1.11 15.85-3.47 23.81l-9.93 37.18-15.36-34h-68.33v-110.66l17.38.89c32.52 1.66 61.63 21.66 73.74 51.88 3.88 9.69 5.97 20.15 5.97 30.9z" fill="#ad4b07"/><path d="m314.486 34.153-37.587-14.976c-13.42-5.347-28.379-5.347-41.799 0l-37.587 14.976c-19.127 7.621-32.589 25.049-35.132 45.48l-5.666 45.533 99.285-5.343 99.284 5.344-5.667-45.534c-2.542-20.431-16.004-37.859-35.131-45.48z" fill="#ff4571"/><path d="m355.28 125.17-99.28-5.35v-104.65c7.1 0 14.19 1.34 20.9 4.01l37.59 14.97c19.12 7.62 32.59 25.05 35.13 45.48l5.43 43.73h.01z" fill="#e52541"/><path d="m275.826 194.273c-11.431-9.719-28.221-9.719-39.652 0-12.748 10.838-28.758 17.094-45.477 17.771l-18.392.744 1.233 7.414c6.705 40.322 41.586 69.882 82.461 69.882 41.791-2.318 76.381-33.318 83.247-74.606l.447-2.69-18.392-.744c-16.717-.677-32.727-6.933-45.475-17.771z" fill="#efebdc"/><path d="m339.69 212.79-.44 2.69c-3.43 20.65-12.49 39.84-27.22 53.04s-35.13 20.41-56.03 21.56v-103.1c7.06 0 14.12 2.43 19.83 7.29 12.74 10.84 28.75 17.1 45.47 17.77z" fill="#d6cfbd"/><path d="m256 89.417c-50.382 0-86.067 19.575-106.216 34.816-8.071 6.105-4.308 18.96 5.775 19.823l95.082 8.132c3.566.305 7.152.305 10.718 0l95.082-8.132c10.083-.862 13.846-13.718 5.775-19.823-20.149-15.242-55.834-34.816-106.216-34.816z" fill="#7b7284"/><path d="m356.44 144.06-95.08 8.13c-1.78.15-3.57.23-5.36.23v-63c44.87 0 78.09 15.52 99.05 29.69h.01c2.57 1.74 4.96 3.46 7.16 5.12 8.07 6.11 4.3 18.96-5.78 19.83z" fill="#635a6d"/></g></g></svg>