<svg id="Layer_1" enable-background="new 0 0 512 512" height="512" viewBox="0 0 512 512" width="512" xmlns="http://www.w3.org/2000/svg"><g><g><g><path d="m512 256c0 56.5-18.31 108.72-49.31 151.06-46.57 63.62-121.81 39.523-206.69 39.523s-160.12 24.097-206.69-39.523c-31-42.34-49.31-94.56-49.31-151.06 0-141.38 114.62-256 256-256s256 114.62 256 256z" fill="#ff57cc"/></g></g><path d="m256 446.583c84.88 0 160.12 24.097 206.69-39.523 31-42.34 49.31-94.56 49.31-151.06 0-9.748-.564-19.363-1.625-28.828l-168.425-168.175s-37.438-1.566-38.258-1.732c-1.562-1.794-14.773-14.615-14.773-14.615l-167.077 241.89 17.116 17.378s7.893 27.203 15.696 35.429l-105.344 69.713s0 .001.001.001c46.57 63.619 121.809 39.522 206.689 39.522z" fill="#e224ba"/><g><g><path d="m407.53 191.23c0-13.168-6.076-24.913-15.574-32.595-1.687-1.365-2.094-3.77-.963-5.621 3.893-6.372 6.136-13.862 6.136-21.876 0-23.211-18.816-42.028-42.028-42.028-2.486.002-4.501-2.036-4.44-4.521.008-.314.012-.629.012-.945 0-21.654-17.554-39.208-39.208-39.208-5.284 0-10.322 1.051-14.921 2.948-1.888.779-4.07.132-5.219-1.557-7.681-11.301-20.633-18.727-35.325-18.727s-27.644 7.426-35.324 18.726c-1.148 1.689-3.33 2.336-5.219 1.557-4.599-1.897-9.636-2.948-14.921-2.948-21.654 0-39.208 17.554-39.208 39.208 0 .316.004.631.012.945.061 2.485-1.954 4.523-4.44 4.521-23.211 0-42.028 18.817-42.028 42.028 0 8.014 2.243 15.504 6.136 21.876 1.131 1.852.724 4.257-.963 5.621-9.498 7.682-15.574 19.428-15.574 32.595 0 10.785 4.078 20.614 10.772 28.041 1.406 1.56 1.464 3.913.164 5.562-5.762 7.31-9.205 16.531-9.205 26.562 0 18.519 11.721 34.292 28.146 40.329 1.856.682 3.08 2.481 2.881 4.449-.151 1.496-.231 3.014-.231 4.551 0 25.344 20.545 45.889 45.889 45.889h146.228c25.344 0 45.889-20.545 45.889-45.889 0-1.537-.08-3.054-.231-4.551-.199-1.968 1.024-3.767 2.881-4.449 16.426-6.037 28.146-21.81 28.146-40.329 0-10.03-3.443-19.252-9.205-26.562-1.3-1.649-1.242-4.002.164-5.562 6.692-7.426 10.771-17.255 10.771-28.04z" fill="#494949"/><path d="m396.59 224.83c5.77 7.31 9.21 16.53 9.21 26.56 0 18.52-11.72 34.3-28.15 40.33-1.85.69-3.08 2.48-2.88 4.45.15 1.5.23 3.02.23 4.55 0 25.35-20.54 45.89-45.89 45.89h-73.11v-319.51c14.69 0 27.64 7.43 35.32 18.73 1.15 1.68 3.33 2.33 5.22 1.55 4.6-1.89 9.64-2.95 14.92-2.95 21.66 0 39.21 17.56 39.21 39.21 0 .32 0 .63-.01.95v.11c0 2.43 1.99 4.41 4.44 4.41 23.21 0 42.03 18.82 42.03 42.03 0 8.01-2.24 15.5-6.14 21.87-1.13 1.85-.72 4.26.97 5.62 9.49 7.69 15.57 19.43 15.57 32.6 0 10.79-4.08 20.61-10.77 28.04-1.41 1.56-1.47 3.91-.17 5.56z" fill="#333"/><path d="m199.97 260.488h112.06v118.84h-112.06z" fill="#ffbb7d"/><path d="m256 260.491h56.03v118.84h-56.03z" fill="#efa36a"/><path d="m134.563 332.292h242.875v114.294h-242.875z" fill="#ffd4a6"/><path d="m256 332.292h121.44v114.291h-121.44z" fill="#ffbb7d"/><path d="m462.69 407.06c-46.57 63.62-121.81 104.94-206.69 104.94s-160.12-41.32-206.69-104.94c1.28-41.51 35.34-74.77 77.16-74.77h73.5l56.03 65.21 56.03-65.21h73.51c41.83 0 75.88 33.25 77.15 74.77z" fill="#ffd110"/><path d="m462.69 407.06c-46.57 63.62-121.81 104.94-206.69 104.94v-114.5l56.03-65.21h73.51c4.08 0 8.09.32 11.99.93 36.17 5.63 64.01 36.37 65.16 73.84z" fill="#f7ac06"/><path d="m349.62 151.149c-3.955-60.043-52.523-82.233-93.62-82.233s-89.665 22.19-93.62 82.233c-10.628 2.055-18.177 15.995-16.988 27.265l1.822 25.648c1.247 11.835 11.65 20.476 23.115 19.19l1.977-.214c23.485 63.063 60.316 69.638 83.694 73.33 23.378-3.692 60.209-10.267 83.694-73.33l1.977.214c11.465 1.286 21.868-7.354 23.115-19.19l1.822-25.648c1.189-11.27-6.36-25.21-16.988-27.265z" fill="#ffd4a6"/><path d="m366.609 178.414-1.822 25.648c-1.247 11.835-11.65 20.476-23.115 19.19l-1.977-.214c-8.027 21.528-17.602 36.48-27.664 46.971-19.404 20.242-40.629 23.924-56.03 26.359v-227.452c41.097 0 89.665 22.19 93.62 82.233 10.627 2.055 18.176 15.995 16.988 27.265z" fill="#ffbb7d"/><path d="m275.826 204.523c-11.431-9.719-28.221-9.719-39.652 0-12.748 10.838-28.758 17.094-45.477 17.771l-18.392.744 1.233 7.414c6.705 40.322 41.586 69.882 82.461 69.882 41.791-2.318 76.381-33.318 83.247-74.606l.447-2.69-18.392-.744c-16.717-.677-32.727-6.933-45.475-17.771z" fill="#efebdc"/><path d="m339.69 223.04-.44 2.69c-3.43 20.65-13.8 38.72-28.53 51.92s-33.82 21.53-54.72 22.68v-103.1c7.06 0 14.12 2.43 19.83 7.29 12.74 10.84 28.75 17.1 45.47 17.77z" fill="#d6cfbd"/><path d="m199.97 332.29 56.03 65.21-51.5 39.5-51.5-104.71z" fill="#efebdc"/><path d="m312.03 332.29-56.03 65.21 51.5 39.5 51.5-104.71z" fill="#efebdc"/><path d="m309.637 72.712c-35.232-8.673-72.042-8.673-107.275 0-7.518 1.851-14.657 4.993-21.099 9.288-23.045 15.363-18.884 69.149-18.884 69.149 52.88 3.149 93.621-45.149 93.621-45.149s40.741 48.298 93.62 45.149c0 0 4.161-53.785-18.884-69.149-6.442-4.295-13.581-7.437-21.099-9.288z" fill="#494949"/></g><path d="m349.62 151.15c-52.88 3.15-93.62-45.15-93.62-45.15v-39.79c18.01 0 36.02 2.17 53.64 6.5 3.76.93 7.42 2.17 10.95 3.73s6.93 3.42 10.15 5.56c23.04 15.36 18.88 69.15 18.88 69.15z" fill="#333"/></g></g></svg>