<svg id="Layer_1" enable-background="new 0 0 512 512" height="512" viewBox="0 0 512 512" width="512" xmlns="http://www.w3.org/2000/svg"><g><g><g><path d="m512 256c0 56.5-18.31 108.72-49.31 151.06-46.57 63.62-121.81 39.523-206.69 39.523s-160.12 24.097-206.69-39.523c-31-42.34-49.31-94.56-49.31-151.06 0-141.38 114.62-256 256-256s256 114.62 256 256z" fill="#4cd3aa"/></g></g><path d="m256 446.583c84.88 0 160.12 24.097 206.69-39.523 31-42.34 49.31-94.56 49.31-151.06 0-10.764-.673-21.37-1.963-31.785l-161.112-161.112-268.488 372.427c45.832 26.49 107.606 11.053 175.563 11.053z" fill="#26b290"/><g><path d="m256 25.667c-34.333 0-134.333 21.135-134.333 171.567 0 45.41-1.522 82.742 15.569 104.811 39.528 51.041 118.764 45.122 118.764 45.122z" fill="#d36c18"/><path d="m256 25.667s76.167-3.25 109.5 61.083c25.598 49.405 40.436 163.583-56.699 204.25h-52.801z" fill="#ad4b07"/><path d="m199.97 260.488h112.06v118.84h-112.06z" fill="#ffbb7d"/><path d="m256 260.491h56.03v118.84h-56.03z" fill="#efa36a"/><path d="m199.97 371.488h112.06v118.84h-112.06z" fill="#efebdc"/><path d="m256 371.491h56.03v118.84h-56.03z" fill="#d6cfbd"/><path d="m385.54 332.29h-73.51v.002l-56.03 130.708-56.03-130.708v-.002h-73.5c-41.82 0-75.88 33.26-77.16 74.77 46.57 63.62 121.81 104.94 206.69 104.94s160.12-41.32 206.69-104.94c-1.27-41.52-35.32-74.77-77.15-74.77z" fill="#ffea92"/><path d="m462.69 407.06c-46.57 63.62-121.81 104.94-206.69 104.94v-49l56.03-130.71h73.51c41.83 0 75.88 33.25 77.15 74.77z" fill="#f7d854"/><path d="m349.62 151.149c-3.955-60.043-52.523-82.233-93.62-82.233s-89.666 22.19-93.62 82.233c-10.627 2.055-18.177 15.995-16.988 27.265l1.822 25.648c1.247 11.835 11.65 20.476 23.115 19.19l1.977-.214c23.485 63.063 60.316 69.638 83.694 73.33 23.378-3.692 60.209-10.267 83.694-73.33l1.977.214c11.465 1.286 21.868-7.354 23.115-19.19l1.822-25.648c1.189-11.27-6.36-25.21-16.988-27.265z" fill="#ffd4a6"/><path d="m366.609 178.414-1.822 25.648c-1.247 11.835-11.65 20.476-23.115 19.19l-1.977-.214c-8.026 21.528-17.602 36.48-27.664 46.971-19.404 20.242-40.63 23.924-56.03 26.359v-227.452c41.097 0 89.665 22.19 93.62 82.233 10.627 2.055 18.176 15.995 16.988 27.265z" fill="#ffbb7d"/><path d="m275.826 204.523c-11.431-9.719-28.221-9.719-39.652 0-12.748 10.838-28.758 17.094-45.477 17.771l-18.392.744 1.233 7.414c6.705 40.322 41.586 69.882 82.461 69.882 41.791-2.318 76.381-33.318 83.247-74.606l.447-2.69-18.392-.744c-16.717-.677-32.727-6.933-45.475-17.771z" fill="#efebdc"/><path d="m339.69 223.04-.44 2.69c-3.43 20.65-13.8 38.72-28.53 51.92s-33.82 21.53-54.72 22.68v-103.1c7.06 0 14.12 2.43 19.83 7.29 12.74 10.84 28.75 17.1 45.47 17.77z" fill="#d6cfbd"/><path d="m256 31.667s-132.98.668-108.513 133.603c0 0 64.005-3.45 75.046-33.812s19.321-31.742 33.467-31.742 22.426 1.38 33.467 31.742 74.643 33.812 74.643 33.812c24.467-132.936-108.11-133.603-108.11-133.603z" fill="#d36c18"/><path d="m364.11 165.27s-63.6-3.45-74.64-33.81-19.32-31.74-33.47-31.74v-68.05s132.58.66 108.11 133.6z" fill="#ad4b07"/><path d="m194.56 402.13c-.78 1.65-1.61 3.23-2.49 4.75 9.44 5.62 10.6 23.83 2.49 41.13-.78 1.65-1.61 3.23-2.49 4.75 9.44 5.62 10.6 23.83 2.49 41.13-1.6 3.4-3.43 6.51-5.43 9.28-19.31-5.2-37.72-12.62-54.93-21.95-2.74-12.79-.34-24.22 6.8-28.46-.88-1.52-1.71-3.1-2.49-4.75-8.11-17.3-6.96-35.51 2.49-41.13-.88-1.52-1.71-3.1-2.49-4.75-8.11-17.3-6.96-35.51 2.49-41.13-.88-1.51-1.71-3.1-2.49-4.75-8.25-17.59-6.92-36.13 2.96-41.41 7.25-3.88 17.08.45 25.06 9.97 7.99-9.52 17.82-13.85 25.06-9.97 9.89 5.28 11.22 23.82 2.97 41.41-.78 1.65-1.61 3.24-2.49 4.75 9.44 5.62 10.6 23.83 2.49 41.13z" fill="#d36c18"/></g></g></svg>