<svg id="Layer_1" enable-background="new 0 0 512 512" height="512" viewBox="0 0 512 512" width="512" xmlns="http://www.w3.org/2000/svg"><g><g><g><path d="m512 256c0 56.5-18.31 108.72-49.31 151.06-46.57 63.62-121.81 39.523-206.69 39.523s-160.12 24.097-206.69-39.523c-31-42.34-49.31-94.56-49.31-151.06 0-141.38 114.62-256 256-256s256 114.62 256 256z" fill="#f7d854"/></g></g><path d="m256 446.583c84.88 0 160.12 24.097 206.69-39.523 31-42.34 49.31-94.56 49.31-151.06 0-15.93-1.468-31.516-4.253-46.641l-149.676-149.676-276.711 376.379c45.737 25.756 107.139 10.521 174.64 10.521z" fill="#eac31c"/><g><path d="m380.15 226.775c19.728-55.102 19.454-106.293-11.158-153.061-28.697-43.842-77.659-52.381-112.992-52.381s-84.295 8.539-112.992 52.381c-30.612 46.769-30.886 97.959-11.158 153.061 19.728 55.103-7.483 111.225-7.483 111.225h263.265c.001 0-27.21-56.122-7.482-111.225z" fill="#584b66"/><path d="m387.63 338h-131.63v-316.67c35.33 0 84.29 8.54 112.99 52.38 30.61 46.77 30.89 97.96 11.16 153.07-19.73 55.1 7.48 111.22 7.48 111.22z" fill="#3d3449"/><path d="m199.97 260.488h112.06v118.84h-112.06z" fill="#f7a969"/><path d="m256 260.491h56.03v118.84h-56.03z" fill="#ea8d4e"/><path d="m385.54 332.29h-73.51v.002h-112.06v-.002h-73.5c-41.82 0-75.88 33.26-77.16 74.77 46.57 63.62 121.81 104.94 206.69 104.94s160.12-41.32 206.69-104.94c-1.27-41.52-35.32-74.77-77.15-74.77z" fill="#d36c18"/><path d="m462.69 407.06c-46.57 63.62-121.81 104.94-206.69 104.94v-179.71h129.54c41.83 0 75.88 33.25 77.15 74.77z" fill="#af4b00"/><path d="m385.13 332.29v144.79c-37.91 22.2-82.03 34.92-129.13 34.92s-91.22-12.72-129.13-34.92v-144.79h40.24v83.61h177.78v-83.61z" fill="#efebdc"/><path d="m385.13 332.29v144.79c-37.91 22.2-82.03 34.92-129.13 34.92v-96.1h88.89v-83.61z" fill="#d6cfbd"/><path d="m349.62 151.149c-3.955-60.043-52.523-82.233-93.62-82.233s-89.665 22.19-93.62 82.233c-10.628 2.055-18.177 15.995-16.988 27.265l1.822 25.648c1.247 11.835 11.65 20.476 23.115 19.19l1.977-.214c23.485 63.063 60.316 69.638 83.694 73.33 23.378-3.692 60.209-10.267 83.694-73.33l1.977.214c11.465 1.286 21.868-7.354 23.115-19.19l1.822-25.648c1.189-11.27-6.36-25.21-16.988-27.265z" fill="#ffbf85"/><path d="m366.609 178.414-1.822 25.648c-1.247 11.835-11.65 20.476-23.115 19.19l-1.977-.214c-8.027 21.528-17.602 36.48-27.664 46.971-19.404 20.242-40.629 23.924-56.03 26.359v-227.452c41.097 0 89.665 22.19 93.62 82.233 10.627 2.055 18.176 15.995 16.988 27.265z" fill="#f7a969"/><path d="m275.826 204.523c-11.431-9.719-28.221-9.719-39.652 0-12.748 10.838-28.758 17.094-45.477 17.771l-18.392.744 1.233 7.414c6.705 40.322 41.586 69.882 82.461 69.882 41.791-2.318 76.381-33.318 83.247-74.606l.447-2.69-18.392-.744c-16.717-.677-32.727-6.933-45.475-17.771z" fill="#efebdc"/><path d="m339.69 223.04-.44 2.69c-3.43 20.65-13.8 38.72-28.53 51.92s-33.82 21.53-54.72 22.68v-103.1c7.06 0 14.12 2.43 19.83 7.29 12.74 10.84 28.75 17.1 45.47 17.77z" fill="#d6cfbd"/><path d="m277.116 51.624-21.116 1.376-21.116-1.376c-57.155-3.724-102.85 46.806-93.416 103.299l3.923 23.491c27.058-1.253 50.275-34.081 50.275-34.081 37.334 12.667 60.334-26.333 60.334-26.333s23 39 60.333 26.333c0 0 23.217 32.828 50.275 34.081l3.923-23.491c9.435-56.493-36.26-107.023-93.415-103.299z" fill="#584b66"/><path d="m370.53 154.92-3.92 23.49c-27.06-1.25-50.28-34.08-50.28-34.08-37.33 12.67-60.33-26.33-60.33-26.33v-65l21.12-1.38c57.15-3.72 102.85 46.81 93.41 103.3z" fill="#3d3449"/><path d="m203.85 69.386c-13.226 9.234-26.216 21.702-35.206 38.28l24.623-10.591c40.048-17.226 85.418-17.226 125.466 0l24.623 10.591c-8.99-16.578-21.98-29.046-35.206-38.28-31.25-21.818-73.05-21.818-104.3 0z" fill="#efebdc"/><path d="m343.36 107.67-24.63-10.59c-20.03-8.62-41.38-12.92-62.73-12.92v-31.14c18.26 0 36.52 5.46 52.15 16.37 13.23 9.23 26.22 21.7 35.21 38.28z" fill="#d6cfbd"/></g></g></svg>