<svg id="Layer_1" enable-background="new 0 0 512 512" height="512" viewBox="0 0 512 512" width="512" xmlns="http://www.w3.org/2000/svg"><g><g><g><path d="m512 256c0 56.5-18.31 108.72-49.31 151.06-46.57 63.62-121.81 39.523-206.69 39.523s-160.12 24.097-206.69-39.523c-31-42.34-49.31-94.56-49.31-151.06 0-141.38 114.62-256 256-256s256 114.62 256 256z" fill="#ef9b14"/></g></g><path d="m256 446.583c84.88 0 160.12 24.097 206.69-39.523 31-42.34 49.31-94.56 49.31-151.06 0-6.77-.268-13.478-.784-20.116l-174.61-174.61-179.882 158.63 35.852 36.187c4.311 15.678 28.191 43.476 28.191 43.476l-171.457 107.493c46.57 63.62 121.81 39.523 206.69 39.523z" fill="#db8200"/><g><path d="m199.97 260.488h112.06v118.84h-112.06z" fill="#ffbb7d"/><path d="m256 260.491h56.03v118.84h-56.03z" fill="#efa36a"/><path d="m385.54 332.29h-73.51v.002h-112.06v-.002h-73.5c-41.82 0-75.88 33.26-77.16 74.77 46.57 63.62 121.81 104.94 206.69 104.94s160.12-41.32 206.69-104.94c-1.27-41.52-35.32-74.77-77.15-74.77z" fill="#efebdc"/><path d="m256 332.29v179.71l-18-6.5-38.03-173.208z" fill="#a23ace"/><path d="m462.69 407.06c-46.57 63.62-121.81 104.94-206.69 104.94v-179.71h129.54c41.83 0 75.88 33.25 77.15 74.77z" fill="#d6cfbd"/><path d="m256 332.29v179.71l18-6.5 38.03-173.208z" fill="#7728a0"/><path d="m349.62 151.149c-3.955-60.043-52.523-82.233-93.62-82.233s-89.665 22.19-93.62 82.233c-10.628 2.055-18.177 15.995-16.988 27.265l1.822 25.648c1.247 11.835 11.65 20.476 23.115 19.19l1.977-.214c23.485 63.063 60.316 69.638 83.694 73.33 23.378-3.692 60.209-10.267 83.694-73.33l1.977.214c11.465 1.286 21.868-7.354 23.115-19.19l1.822-25.648c1.189-11.27-6.36-25.21-16.988-27.265z" fill="#ffd4a6"/><path d="m366.609 178.414-1.822 25.648c-1.247 11.835-11.65 20.476-23.115 19.19l-1.977-.214c-8.027 21.528-17.602 36.48-27.664 46.971-19.404 20.242-40.629 23.924-56.03 26.359v-227.452c41.097 0 89.665 22.19 93.62 82.233 10.627 2.055 18.176 15.995 16.988 27.265z" fill="#ffbb7d"/><path d="m275.826 204.523c-11.431-9.719-28.221-9.719-39.652 0-12.748 10.838-28.758 17.094-45.477 17.771l-18.392.744 1.233 7.414c6.705 40.322 41.586 69.882 82.461 69.882 41.791-2.318 76.381-33.318 83.247-74.606l.447-2.69-18.392-.744c-16.717-.677-32.727-6.933-45.475-17.771z" fill="#efebdc"/><path d="m339.69 223.04-.44 2.69c-3.43 20.65-12.49 39.84-27.22 53.04s-35.13 20.41-56.03 21.56v-103.1c7.06 0 14.12 2.43 19.83 7.29 12.74 10.84 28.75 17.1 45.47 17.77z" fill="#d6cfbd"/><path d="m301.426 37.589c-29.324-10.786-61.528-10.786-90.852 0-29.842 10.976-51.592 36.997-57.102 68.313-3.085 17.534-.856 35.589 6.399 51.847l11.109 24.892 11.529-46.816c3.099-12.585 16.083-20.03 28.51-16.348l17.766 5.264c17.762 5.263 36.668 5.263 54.43 0l17.766-5.264c12.427-3.682 25.411 3.763 28.51 16.348l11.528 46.816 11.109-24.892c7.255-16.258 9.484-34.313 6.399-51.847-5.509-31.315-27.259-57.336-57.101-68.313z" fill="#584b66"/><path d="m352.13 157.75-11.11 24.89-11.53-46.81c-3.1-12.59-16.08-20.03-28.51-16.35l-17.77 5.26c-8.88 2.63-18.05 3.94-27.21 3.94v-99.18c15.38 0 30.76 2.7 45.43 8.09 14.92 5.49 27.82 14.74 37.67 26.53 9.86 11.79 16.68 26.12 19.43 41.78 3.08 17.54.85 35.59-6.4 51.85z" fill="#3d3449"/><path d="m256 512c-12.13 0-24.06-.84-35.74-2.48l-82.26-117.52 25.22-40-36.75-19.71c18.47-42.71 73.5-53.52 73.5-53.52l12.86 53.52z" fill="#584b66"/><path d="m348.78 352 25.22 40-82.26 117.52c-11.68 1.64-23.61 2.48-35.74 2.48l43.17-179.71 12.86-53.52s55.03 10.81 73.5 53.52z" fill="#3d3449"/></g></g></svg>