<svg id="Layer_1" enable-background="new 0 0 512 512" height="512" viewBox="0 0 512 512" width="512" xmlns="http://www.w3.org/2000/svg"><g><g><g><path d="m512 256c0 56.5-18.31 108.72-49.31 151.06-46.57 63.62-121.81 39.523-206.69 39.523s-160.12 24.097-206.69-39.523c-31-42.34-49.31-94.56-49.31-151.06 0-141.38 114.62-256 256-256s256 114.62 256 256z" fill="#4779f4"/></g></g><path d="m256 446.583c84.88 0 160.12 24.097 206.69-39.523 31-42.34 49.31-94.56 49.31-151.06 0-14.565-1.235-28.84-3.572-42.742l-143.243-143.243-283.349 366.307c45.687 25.386 106.896 10.261 174.164 10.261z" fill="#2357cc"/><g><path d="m402 396.5h-292v-232.945c0-75.814 61.459-137.273 137.273-137.273h17.453c75.815-.001 137.274 61.459 137.274 137.273z" fill="#494949"/><path d="m402 163.55v232.95h-146v-370.22h8.73c75.81 0 137.27 61.46 137.27 137.27z" fill="#333"/><path d="m199.97 260.488h112.06v118.84h-112.06z" fill="#ffbb7d"/><path d="m256 260.491h56.03v118.84h-56.03z" fill="#efa36a"/><path d="m385.54 332.29h-73.51v.002h-112.06v-.002h-73.5c-41.82 0-75.88 33.26-77.16 74.77 46.57 63.62 121.81 104.94 206.69 104.94s160.12-41.32 206.69-104.94c-1.27-41.52-35.32-74.77-77.15-74.77z" fill="#ffd4a6"/><path d="m462.69 407.06c-46.57 63.62-121.81 104.94-206.69 104.94v-179.71h129.54c41.83 0 75.88 33.25 77.15 74.77z" fill="#ffbb7d"/><path d="m349.62 151.149c-3.955-60.043-52.523-82.233-93.62-82.233s-89.665 22.19-93.62 82.233c-10.628 2.055-18.177 15.995-16.988 27.265l1.822 25.648c1.247 11.835 11.65 20.476 23.115 19.19l1.977-.214c23.485 63.063 60.316 69.638 83.694 73.33 23.378-3.692 60.209-10.267 83.694-73.33l1.977.214c11.465 1.286 21.868-7.354 23.115-19.19l1.822-25.648c1.189-11.27-6.36-25.21-16.988-27.265z" fill="#ffd4a6"/><path d="m366.609 178.414-1.822 25.648c-1.247 11.835-11.65 20.476-23.115 19.19l-1.977-.214c-8.027 21.528-17.602 36.48-27.664 46.971-19.404 20.242-40.629 23.924-56.03 26.359v-227.452c41.097 0 89.665 22.19 93.62 82.233 10.627 2.055 18.176 15.995 16.988 27.265z" fill="#ffbb7d"/><path d="m275.826 204.523c-11.431-9.719-28.221-9.719-39.652 0-12.748 10.838-28.758 17.094-45.477 17.771l-18.392.744 1.233 7.414c6.705 40.322 41.586 69.882 82.461 69.882 41.791-2.318 76.381-33.318 83.247-74.606l.447-2.69-18.392-.744c-16.717-.677-32.727-6.933-45.475-17.771z" fill="#efebdc"/><path d="m339.69 223.04-.44 2.69c-3.43 20.65-13.8 38.72-28.53 51.92s-33.82 21.53-54.72 22.68v-103.1c7.06 0 14.12 2.43 19.83 7.29 12.74 10.84 28.75 17.1 45.47 17.77z" fill="#d6cfbd"/><path d="m349.62 128.78v54.4h-20.73c-7.8 0-14.12-6.32-14.12-14.12v-21.18c0-6.56-5.32-11.88-11.88-11.88h-6.24c-3.28 0-6.25 1.33-8.4 3.48s-3.48 5.12-3.48 8.4c0 7.8-6.32 14.12-14.12 14.12h-29.3c-3.9 0-7.43-1.58-9.99-4.14-2.55-2.55-4.13-6.08-4.13-9.98 0-6.56-5.32-11.88-11.88-11.88h-6.24c-6.56 0-11.88 5.32-11.88 11.88v21.18c0 7.8-6.32 14.12-14.12 14.12h-20.73v-54.4c0-40.67 32.97-73.64 73.65-73.64h39.94c.64 0 1.27.01 1.91.02 39.8 1.02 71.74 33.59 71.74 73.62z" fill="#494949"/><path d="m349.62 128.78v54.4h-20.73c-7.8 0-14.12-6.32-14.12-14.12v-21.18c0-6.56-5.32-11.88-11.88-11.88h-6.24c-3.28 0-6.25 1.33-8.4 3.48s-3.48 5.12-3.48 8.4c0 7.8-6.32 14.12-14.12 14.12h-14.65v-106.86h19.97c.64 0 1.27.01 1.91.02 39.8 1.02 71.74 33.59 71.74 73.62z" fill="#333"/><path d="m396.5 424.92v45.12c-40.34 26.52-88.62 41.96-140.5 41.96s-100.16-15.44-140.5-41.96v-45.12l84.97-92.63h111.06z" fill="#d36c18"/><path d="m396.5 424.92v45.12c-40.34 26.52-88.62 41.96-140.5 41.96v-179.71h55.53l58.9 64.21z" fill="#af4b00"/></g></g></svg>