<svg id="Layer_1" enable-background="new 0 0 512 512" height="512" viewBox="0 0 512 512" width="512" xmlns="http://www.w3.org/2000/svg"><g><g><g><path d="m512 256c0 56.5-18.31 108.72-49.31 151.06-46.57 63.62-121.81 39.523-206.69 39.523s-160.12 24.097-206.69-39.523c-31-42.34-49.31-94.56-49.31-151.06 0-141.38 114.62-256 256-256s256 114.62 256 256z" fill="#a23ace"/></g></g><path d="m256 446.583c84.88 0 160.12 24.097 206.69-39.523 31-42.34 49.31-94.56 49.31-151.06 0-2.376-.038-4.742-.102-7.102l-207.898-207.898-7.667 18.14-40.333-40.14-12.333 51.667-35.667-29.667s1.534 26.884.951 35.383c-30.068 14.549-46.569 49.71-37.349 83.988-10.627 2.056-15.512 59.09-15.512 59.09l31.599 31.633c4.219 15.46 13.957 26.051 13.957 26.051l5.537 8.921 6.157 59.593-164.03 61.4c46.57 63.621 121.81 39.524 206.69 39.524z" fill="#7728a0"/><g><path d="m199.97 260.488h112.06v118.84h-112.06z" fill="#ffbb7d"/><path d="m256 260.491h56.03v118.84h-56.03z" fill="#efa36a"/><path d="m256 332.292h121.44v114.291h-121.44z" fill="#ffbb7d"/><path d="m385.54 332.29h-73.51v.002h-112.06v-.002h-73.5c-41.82 0-75.88 33.26-77.16 74.77 46.57 63.62 121.81 104.94 206.69 104.94s160.12-41.32 206.69-104.94c-1.27-41.52-35.32-74.77-77.15-74.77z" fill="#ffd4a6"/><path d="m462.69 407.06c-46.57 63.62-121.81 104.94-206.69 104.94v-179.71h129.54c41.83 0 75.88 33.25 77.15 74.77z" fill="#ffbb7d"/><path d="m349.62 151.149c-3.955-60.043-52.523-82.233-93.62-82.233s-89.666 22.19-93.62 82.233c-10.627 2.055-18.177 15.995-16.988 27.265l1.822 25.648c1.247 11.835 11.65 20.476 23.115 19.19l1.977-.214c23.485 63.063 60.316 69.638 83.694 73.33 23.378-3.692 60.209-10.267 83.694-73.33l1.977.214c11.465 1.286 21.868-7.354 23.115-19.19l1.822-25.648c1.189-11.27-6.36-25.21-16.988-27.265z" fill="#ffd4a6"/><path d="m366.609 178.414-1.822 25.648c-1.247 11.835-11.65 20.476-23.115 19.19l-1.977-.214c-8.026 21.528-17.602 36.48-27.664 46.971-19.404 20.242-40.63 23.924-56.03 26.359v-227.452c41.097 0 89.665 22.19 93.62 82.233 10.627 2.055 18.176 15.995 16.988 27.265z" fill="#ffbb7d"/><path d="m275.826 204.523c-11.431-9.719-28.221-9.719-39.652 0-12.748 10.838-28.758 17.094-45.477 17.771l-18.392.744 1.233 7.414c6.705 40.322 41.586 69.882 82.461 69.882 41.791-2.318 76.381-33.318 83.247-74.606l.447-2.69-18.392-.744c-16.717-.677-32.727-6.933-45.475-17.771z" fill="#efebdc"/><path d="m339.69 223.04-.44 2.69c-3.43 20.65-13.8 38.72-28.53 51.92s-33.82 21.53-54.72 22.68v-103.1c7.06 0 14.12 2.43 19.83 7.29 12.74 10.84 28.75 17.1 45.47 17.77z" fill="#d6cfbd"/><path d="m408.67 426.33v35.17c-42.62 31.73-95.46 50.5-152.67 50.5s-110.05-18.77-152.67-50.5v-35.17c17.64-17.04 27.6-40.51 27.6-65.04v-29h34.64c0 41.88 33.95 75.83 75.83 75.83h29.2c20.94 0 39.9-8.49 53.62-22.21s22.21-32.68 22.21-53.62h34.64v29c0 12.27 2.49 24.27 7.19 35.33 4.69 11.06 11.59 21.19 20.41 29.71z" fill="#7b7284"/><path d="m408.67 426.33v35.17c-42.62 31.73-95.46 50.5-152.67 50.5v-103.88h14.6c20.94 0 39.9-8.49 53.62-22.21s22.21-32.68 22.21-53.62h34.64v29c0 12.27 2.49 24.27 7.19 35.33 4.69 11.06 11.59 21.19 20.41 29.71z" fill="#635a6d"/><path d="m289.354 61.254c-22.146-2.824-44.561-2.824-66.708 0-43.182 5.507-71.574 47.858-60.267 89.895l5.288 27.851h20.667l6.878-33.89c2.584-12.73 15.333-20.675 27.9-17.386l27.16 7.109c3.756.983 7.702.983 11.458 0l27.159-7.109c12.567-3.29 25.316 4.655 27.9 17.386l6.879 33.89h20.667l5.287-27.851c11.306-42.037-17.086-84.388-60.268-89.895z" fill="#fa0"/><path d="m349.62 151.15-5.29 27.85h-20.66l-6.88-33.89c-2.59-12.73-15.34-20.68-27.9-17.39l-27.16 7.11c-1.88.49-3.81.74-5.73.74v-76.43c11.14 0 22.28.7 33.35 2.11 7.98 1.02 15.45 3.29 22.26 6.59 30.06 14.55 47.23 49.04 38.01 83.31z" fill="#ea8000"/><path d="m304 41-22.375 16.375-25.625-38.375-25.625 38.375-22.375-16.375c-23.917 46.877 15.112 86.724 15.112 86.724 20.592 10.816 45.185 10.816 65.777 0-.001 0 39.027-39.847 15.111-86.724z" fill="#ffce00"/><path d="m311.76 72.4c0 31.98-22.87 55.32-22.87 55.32-10.29 5.41-21.59 8.12-32.89 8.12v-116.84l25.62 38.38 22.38-16.38c4.75 9.31 7.02 18.34 7.61 26.84.1 1.54.15 3.06.15 4.56z" fill="#fa0"/></g></g></svg>