<svg id="Layer_1" enable-background="new 0 0 512 512" height="512" viewBox="0 0 512 512" width="512" xmlns="http://www.w3.org/2000/svg"><g><g><g><path d="m512 256c0 56.5-18.31 108.72-49.31 151.06-46.57 63.62-121.81 39.523-206.69 39.523s-160.12 24.097-206.69-39.523c-31-42.34-49.31-94.56-49.31-151.06 0-141.38 114.62-256 256-256s256 114.62 256 256z" fill="#ef9b14"/></g></g><path d="m256 446.583c84.88 0 160.12 24.097 206.69-39.523 31-42.34 49.31-94.56 49.31-151.06 0-6.864-.278-13.662-.808-20.39l-159.811-159.811-226.381 192.701 104.373 104.126-180.063 34.434c.002.002.003.005.005.007 46.571 63.611 121.808 39.516 206.685 39.516z" fill="#db8200"/><path d="m256 39c-26 0-100.868 3.34-123.667 92-12 46.667-7.333 137.5-7.333 137.5h96z" fill="#ad4b07"/><path d="m199.97 260.488h112.06v118.84h-112.06z" fill="#ffbb7d"/><path d="m256 260.491h56.03v118.84h-56.03z" fill="#efa36a"/><path d="m385.54 332.29h-73.51v.002h-112.06v-.002h-73.5c-41.82 0-75.88 33.26-77.16 74.77 46.57 63.62 121.81 104.94 206.69 104.94s160.12-41.32 206.69-104.94c-1.27-41.52-35.32-74.77-77.15-74.77z" fill="#ffd4a6"/><path d="m462.69 407.06c-46.57 63.62-121.81 104.94-206.69 104.94v-179.71h129.54c41.83 0 75.88 33.25 77.15 74.77z" fill="#ffbb7d"/><path d="m349.62 151.149c-3.955-60.043-52.523-82.233-93.62-82.233s-89.666 22.19-93.62 82.233c-10.628 2.055-18.177 15.995-16.988 27.265l1.822 25.648c1.247 11.835 11.65 20.476 23.115 19.19l1.977-.214c23.485 63.063 60.316 69.638 83.694 73.33 23.378-3.692 60.209-10.267 83.694-73.33l1.977.214c11.465 1.286 21.868-7.354 23.115-19.19l1.822-25.648c1.189-11.27-6.36-25.21-16.988-27.265z" fill="#ffd4a6"/><path d="m366.609 178.414-1.822 25.648c-1.247 11.835-11.65 20.476-23.115 19.19l-1.977-.214c-8.027 21.528-17.602 36.48-27.664 46.971-19.404 20.242-40.63 23.924-56.03 26.359v-227.452c41.097 0 89.665 22.19 93.62 82.233 10.627 2.055 18.176 15.995 16.988 27.265z" fill="#ffbb7d"/><path d="m275.826 204.523c-11.431-9.719-28.221-9.719-39.652 0-12.748 10.838-28.758 17.094-45.477 17.771l-18.392.744 1.233 7.414c6.705 40.322 41.586 69.882 82.461 69.882 41.791-2.318 76.381-33.318 83.247-74.606l.447-2.69-18.392-.744c-16.717-.677-32.727-6.933-45.475-17.771z" fill="#efebdc"/><path d="m339.69 223.04-.44 2.69c-3.43 20.65-13.8 38.72-28.53 51.92s-33.82 21.53-54.72 22.68v-103.1c7.06 0 14.12 2.43 19.83 7.29 12.74 10.84 28.75 17.1 45.47 17.77z" fill="#d6cfbd"/><path d="m256 39-39.265 10.608c-40.131 10.842-64.854 51.087-56.386 91.784l2.03 9.757c29.046-21.851 42.832-65.088 42.832-65.088.002-.005.004-.01.006-.016.784 1.6 1.696 3.247 2.782 4.954 0 0 31.44 51 108.72 50 0 0 20.72 75.3-6 136.65 0 0 51.28-14.65 76.28-21.65.001.001 40.001-216.999-130.999-216.999z" fill="#ad4b07"/><path d="m387 256c-25 7-76.28 21.65-76.28 21.65 26.72-61.35 6-136.65 6-136.65-24.8.32-44.88-4.71-60.72-11.71v-90.29c171 0 131 217 131 217z" fill="#7f3706"/><path d="m398.48 456.38v12.33c-40.73 27.34-89.74 43.29-142.48 43.29-51.52 0-99.5-15.23-139.66-41.42l10.13-138.29h34.53l17.72 42.73c7.28 17.55 20.95 31.69 38.25 39.56 13.32 6.06 27.64 9.1 41.98 9.1 12.53 0 25.08-2.32 36.98-6.98 11.83-4.63 24.3-6.94 36.75-6.94 14.15 0 28.29 2.98 41.45 8.92 7.41 3.34 13.5 8.7 17.73 15.26 4.24 6.56 6.62 14.31 6.62 22.44z" fill="#4779f4"/><path d="m398.48 456.38v12.33c-40.73 27.34-89.74 43.29-142.48 43.29v-88.37c.98.04 1.97.05 2.95.05 12.53 0 25.08-2.32 36.98-6.98 11.83-4.63 24.3-6.94 36.75-6.94 14.15 0 28.29 2.98 41.45 8.92 7.41 3.34 13.5 8.7 17.73 15.26 4.24 6.56 6.62 14.31 6.62 22.44z" fill="#2357cc"/></g></svg>