<svg id="Layer_1" enable-background="new 0 0 512 512" height="512" viewBox="0 0 512 512" width="512" xmlns="http://www.w3.org/2000/svg"><g><g><g><path d="m512 256c0 56.5-18.31 108.72-49.31 151.06-46.57 63.62-121.81 39.523-206.69 39.523s-160.12 24.097-206.69-39.523c-31-42.34-49.31-94.56-49.31-151.06 0-141.38 114.62-256 256-256s256 114.62 256 256z" fill="#584b66"/></g></g><path d="m256 446.583c84.88 0 160.12 24.097 206.69-39.523 31-42.34 49.31-94.56 49.31-151.06 0-26.036-3.899-51.159-11.125-74.832l-134.143-134.143-210.033 172.863 35.268 35.644c4.317 15.649 22.223 37.444 22.223 37.444l3.983 57.517-168.863 56.567c46.57 63.62 121.81 39.523 206.69 39.523z" fill="#3d3449"/><g><path d="m199.97 260.488h112.06v118.84h-112.06z" fill="#ffbb7d"/><path d="m256 260.491h56.03v118.84h-56.03z" fill="#efa36a"/><path d="m385.54 332.29h-73.51v.002h-112.06v-.002h-73.5c-41.82 0-75.88 33.26-77.16 74.77 46.57 63.62 121.81 104.94 206.69 104.94s160.12-41.32 206.69-104.94c-1.27-41.52-35.32-74.77-77.15-74.77z" fill="#ff4571"/><path d="m148.638 332.29v156.17c32.652 15.108 69.023 23.54 107.362 23.54v-179.708z" fill="#e52541"/><path d="m462.69 407.06c-46.57 63.62-121.81 104.94-206.69 104.94v-179.71h129.54c41.83 0 75.88 33.25 77.15 74.77z" fill="#bc0031"/><path d="m306.155 396.725h78.181v35.487h-78.181z" fill="#ffd110"/><path d="m349.62 151.149c-3.955-60.043-52.523-82.233-93.62-82.233s-89.665 22.19-93.62 82.233c-10.628 2.055-18.177 15.995-16.988 27.265l1.822 25.648c1.247 11.835 11.65 20.476 23.115 19.19l1.977-.214c23.485 63.063 60.316 69.638 83.694 73.33 23.378-3.692 60.209-10.267 83.694-73.33l1.977.214c11.465 1.286 21.868-7.354 23.115-19.19l1.822-25.648c1.189-11.27-6.36-25.21-16.988-27.265z" fill="#ffd4a6"/><path d="m366.609 178.414-1.822 25.648c-1.247 11.835-11.65 20.476-23.115 19.19l-1.977-.214c-8.027 21.528-17.602 36.48-27.664 46.971-19.404 20.242-40.629 23.924-56.03 26.359v-227.452c41.097 0 89.665 22.19 93.62 82.233 10.627 2.055 18.176 15.995 16.988 27.265z" fill="#ffbb7d"/><path d="m290.367 68.43c-22.819-2.91-45.915-2.91-68.734 0-44.494 5.674-73.749 49.312-62.098 92.626l5.448 28.697h21.294l7.088-34.92c2.662-13.117 15.799-21.303 28.747-17.914l27.985 7.325c3.87 1.013 7.936 1.013 11.806 0l27.985-7.325c12.948-3.389 26.085 4.797 28.747 17.914l7.087 34.92h21.294l5.448-28.697c11.652-43.315-17.603-86.952-62.097-92.626z" fill="#d36c18"/><path d="m353.43 157c-.28 1.35-.61 2.71-.97 4.06l-5.44 28.69h-21.3l-6.64-32.75-.44-2.17c-2.67-13.11-15.8-21.3-28.75-17.91l-27.99 7.32c-1.94.51-3.92.76-5.9.76v-78.75c11.48 0 22.96.73 34.37 2.18 14.01 1.78 26.51 7.33 36.69 15.46 11.09 8.83 19.45 20.72 24.02 34.11 1.11 3.25 2 6.59 2.64 10 1.79 9.32 1.79 19.14-.29 29z" fill="#af4b00"/><path d="m275.826 204.523c-11.431-9.719-28.221-9.719-39.652 0-12.748 10.838-28.758 17.094-45.477 17.771l-18.392.744 1.233 7.414c6.705 40.322 41.586 69.882 82.461 69.882 41.791-2.318 76.381-33.318 83.247-74.606l.447-2.69-18.392-.744c-16.717-.677-32.727-6.933-45.475-17.771z" fill="#efebdc"/><path d="m339.69 223.04-.44 2.69c-3.43 20.65-13.8 38.72-28.53 51.92s-33.82 21.53-54.72 22.68v-103.1c7.06 0 14.12 2.43 19.83 7.29 12.74 10.84 28.75 17.1 45.47 17.77z" fill="#d6cfbd"/><circle cx="207.075" cy="381.151" fill="#efebdc" r="18.062"/><circle cx="207.075" cy="453.4" fill="#efebdc" r="18.062"/><path d="m256 29c-45 0-110.732 18.025-110.732 18.025l11.699 106.314h198.066l11.699-106.314s-65.732-18.025-110.732-18.025z" fill="#ff4571"/><path d="m355.033 153.339 11.699-106.314s-65.732-18.025-110.732-18.025v124.339z" fill="#e52541"/></g></g></svg>