<svg id="Layer_1" enable-background="new 0 0 512 512" height="512" viewBox="0 0 512 512" width="512" xmlns="http://www.w3.org/2000/svg"><g><g><g><path d="m512 256c0 56.5-18.31 108.72-49.31 151.06-46.57 63.62-121.81 39.523-206.69 39.523s-160.12 24.097-206.69-39.523c-31-42.34-49.31-94.56-49.31-151.06 0-141.38 114.62-256 256-256s256 114.62 256 256z" fill="#4cd3aa"/></g></g><path d="m256 446.583c84.88 0 160.12 24.097 206.69-39.523 31-42.34 49.31-94.56 49.31-151.06 0-3.044-.073-6.072-.178-9.09l-208.084-208.084-144.562 183 30.907 29.34c3.672 13.278 35.278 2.112 44.583 11.5l4.34 108.66s-188.417-5.777-189.697 35.733c0 0 .001.001.001.001 46.571 63.619 121.811 39.523 206.69 39.523z" fill="#26b290"/><g><ellipse cx="256" cy="76.148" fill="#4a3e56" rx="61.496" ry="59.269"/><path d="m317.5 76.15c0 32.73-27.54 59.27-61.5 59.27v-118.54c33.35 0 60.51 25.59 61.47 57.52.02.58.03 1.16.03 1.75z" fill="#3d3449"/><path d="m199.97 260.488h112.06v118.84h-112.06z" fill="#ffbb7d"/><path d="m256 260.491h56.03v118.84h-56.03z" fill="#efa36a"/><path d="m344.327 159.584c-3.731-56.649-49.554-77.584-88.327-77.584s-84.596 20.935-88.327 77.584c-10.027 1.939-17.149 15.09-16.028 25.724l1.719 24.198c1.176 11.166 10.992 19.318 21.808 18.105l1.866-.202c22.158 59.497 56.906 65.701 78.962 69.184 22.056-3.483 56.805-9.686 78.962-69.184l1.866.202c10.817 1.213 20.632-6.938 21.808-18.105l1.719-24.198c1.121-10.634-6.001-23.785-16.028-25.724z" fill="#ffd4a6"/><path d="m360.355 185.307-1.719 24.198c-1.176 11.166-10.991 19.318-21.808 18.105l-1.866-.202c-7.573 20.311-16.607 34.417-26.1 44.315-18.307 19.097-38.332 22.571-52.862 24.868v-214.591c38.773 0 84.596 20.935 88.327 77.584 10.027 1.939 17.149 15.09 16.028 25.723z" fill="#ffbb7d"/><path d="m274.705 209.94c-10.785-9.169-26.626-9.169-37.41 0-12.027 10.225-27.132 16.128-42.905 16.766l-17.352.702 1.163 6.995c6.326 38.042 39.234 65.931 77.799 65.931 39.428-2.187 72.062-31.434 78.54-70.388l.422-2.538-17.352-.702c-15.773-.638-30.878-6.541-42.905-16.766z" fill="#efebdc"/><path d="m334.958 227.41-.415 2.538c-3.236 19.482-11.784 37.588-25.681 50.041-13.897 12.454-33.144 19.256-52.862 20.341v-97.271c6.661 0 13.322 2.292 18.709 6.878 12.02 10.227 27.125 16.133 42.899 16.765z" fill="#d6cfbd"/><path d="m385.54 332.29h-73.51v.002h-112.06v-.002h-73.5c-41.82 0-75.88 33.26-77.16 74.77 46.57 63.62 121.81 104.94 206.69 104.94s160.12-41.32 206.69-104.94c-1.27-41.52-35.32-74.77-77.15-74.77z" fill="#ffd4a6"/><path d="m462.69 407.06c-46.57 63.62-121.81 104.94-206.69 104.94v-179.71h129.54c41.83 0 75.88 33.25 77.15 74.77z" fill="#ffbb7d"/><path d="m256.033 56.352s-66.338-2.616-89.903 53.469c-23.565 56.084 13.37 89.429 13.37 89.429l25.69-71.115c16.206 19.734 66.716 55.19 135.675 69.095 0 0 9.726-15.536 12.408-64.551 1.658-30.314-35.029-76.327-97.24-76.327z" fill="#635a6d"/><path d="m353.27 132.68c-2.68 49.01-12.4 64.55-12.4 64.55-33.14-6.68-62.02-18.34-84.87-30.84v-110.04h.03c24.81 0 45.57 7.32 61.44 18.05 23.94 16.16 36.8 40.06 35.8 58.28z" fill="#4a3e56"/><path d="m407.01 462.73c-42.33 30.98-94.54 49.27-151.01 49.27s-108.68-18.29-151.01-49.27l7.26-7.56c15.85-16.53 28.21-35.79 36.6-56.66 8.39-20.86 12.82-43.32 12.82-66.22h38.3v50.71c0 6.46 1.12 12.83 3.26 18.84 2.15 6 5.31 11.64 9.41 16.64 11.21 13.7 27.28 20.54 43.36 20.54s32.15-6.84 43.36-20.54c8.19-10.01 12.67-22.55 12.67-35.48v-50.71h38.3c0 45.8 17.71 89.83 49.42 122.88z" fill="#ffea92"/><path d="m407.01 462.73c-42.33 30.98-94.54 49.27-151.01 49.27v-72.98c16.08 0 32.15-6.84 43.36-20.54 8.19-10.01 12.67-22.55 12.67-35.48v-50.71h38.3c0 45.8 17.71 89.83 49.42 122.88z" fill="#f7d854"/></g></g></svg>