<svg id="Layer_1" enable-background="new 0 0 512 512" height="512" viewBox="0 0 512 512" width="512" xmlns="http://www.w3.org/2000/svg"><g><g><g><path d="m512 256c0 56.5-18.31 108.72-49.31 151.06-46.57 63.62-121.81 39.523-206.69 39.523s-160.12 24.097-206.69-39.523c-31-42.34-49.31-94.56-49.31-151.06 0-141.38 114.62-256 256-256s256 114.62 256 256z" fill="#584b66"/></g></g><path d="m256 446.583c84.88 0 160.12 24.097 206.69-39.523 31-42.34 49.31-94.56 49.31-151.06 0-7.644-.355-15.204-1.011-22.678l-214.322-214.322-140.391 200.594 36.647 36.983s46.939 11.274 47.078 11.422l-33.667 56.75-25.316-26.25-18.018 17.668-22.149-22-13.709 23.191-28.392-28.608-49.44 118.31c46.57 63.62 121.81 39.523 206.69 39.523z" fill="#3d3449"/><g><path d="m201.767 335.5-20.75-37-24.623 18.5-15.543-22.833-25.489 19.321-16.612-24.738-29.75 28.25z" fill="#ffea92"/><path d="m310.234 335.5 20.75-37 24.623 18.5 15.544-22.833 25.489 19.321 16.611-24.738 29.75 28.25z" fill="#f7d854"/><path d="m199.97 260.488h112.06v118.84h-112.06z" fill="#f7a969"/><path d="m256 260.491h56.03v118.84h-56.03z" fill="#ea8d4e"/><path d="m385.54 332.29h-73.51v.002h-112.06v-.002h-73.5c-41.82 0-75.88 33.26-77.16 74.77 46.57 63.62 121.81 104.94 206.69 104.94s160.12-41.32 206.69-104.94c-1.27-41.52-35.32-74.77-77.15-74.77z" fill="#ffbf85"/><path d="m462.69 407.06c-46.57 63.62-121.81 104.94-206.69 104.94v-179.71h129.54c41.83 0 75.88 33.25 77.15 74.77z" fill="#f7a969"/><path d="m349.62 151.149c-3.955-60.043-52.523-82.233-93.62-82.233s-89.665 22.19-93.62 82.233c-10.628 2.055-18.177 15.995-16.988 27.265l1.822 25.648c1.247 11.835 11.65 20.476 23.115 19.19l1.977-.214c23.485 63.063 60.316 69.638 83.694 73.33 23.378-3.692 60.209-10.267 83.694-73.33l1.977.214c11.465 1.286 21.868-7.354 23.115-19.19l1.822-25.648c1.189-11.27-6.36-25.21-16.988-27.265z" fill="#ffbf85"/><path d="m366.609 178.414-1.822 25.648c-1.247 11.835-11.65 20.476-23.115 19.19l-1.977-.214c-8.027 21.528-17.602 36.48-27.664 46.971-19.404 20.242-40.629 23.924-56.03 26.359v-227.452c41.097 0 89.665 22.19 93.62 82.233 10.627 2.055 18.176 15.995 16.988 27.265z" fill="#f7a969"/><path d="m275.826 204.523c-11.431-9.719-28.221-9.719-39.652 0-12.748 10.838-28.758 17.094-45.477 17.771l-18.392.744 1.233 7.414c6.705 40.322 41.586 69.882 82.461 69.882 41.791-2.318 76.381-33.318 83.247-74.606l.447-2.69-18.392-.744c-16.717-.677-32.727-6.933-45.475-17.771z" fill="#efebdc"/><path d="m339.69 223.04-.44 2.69c-3.43 20.65-12.49 39.84-27.22 53.04s-35.13 20.41-56.03 21.56v-103.1c7.06 0 14.12 2.43 19.83 7.29 12.74 10.84 28.75 17.1 45.47 17.77z" fill="#d6cfbd"/><path d="m215.333 19 11.176 83.751h58.982l11.176-83.751z" fill="#4cd3aa"/><path d="m296.67 19-11.18 83.75h-29.49v-83.75z" fill="#26b290"/><path d="m465.02 384.18c0 7.62-.77 15.29-2.33 22.88v.01c-46.58 63.62-121.81 104.93-206.69 104.93s-160.11-41.31-206.69-104.93c0 0 0 0 0-.01-6.36-30.86.41-62.98 18.68-88.64l1.01-1.42 130.97 15.29 56.03 122.71 56.03-122.71 130.97-15.29 1.01 1.42c13.78 19.35 21.01 42.37 21.01 65.76z" fill="#4cd3aa"/><path d="m465.02 384.18c0 7.62-.77 15.29-2.33 22.88v.01c-46.58 63.62-121.81 104.93-206.69 104.93v-57l56.03-122.71 130.97-15.29 1.01 1.42c13.78 19.35 21.01 42.37 21.01 65.76z" fill="#26b290"/></g></g></svg>