<svg id="Layer_1" enable-background="new 0 0 512 512" height="512" viewBox="0 0 512 512" width="512" xmlns="http://www.w3.org/2000/svg"><g><g><g><path d="m512 256c0 56.5-18.31 108.72-49.31 151.06-46.57 63.62-121.81 39.523-206.69 39.523s-160.12 24.097-206.69-39.523c-31-42.34-49.31-94.56-49.31-151.06 0-141.38 114.62-256 256-256s256 114.62 256 256z" fill="#ffea92"/></g></g><path d="m256 446.583c84.88 0 160.12 24.097 206.69-39.523 31-42.34 49.31-94.56 49.31-151.06 0-5.833-.214-11.616-.598-17.352l-174.312-174.312-180.984 155.132 14.865 15.227s14.247 95.956-13.101 133.767c-39.678 2.346-108.56 38.598-108.56 38.598 46.57 63.62 121.81 39.523 206.69 39.523z" fill="#f7d854"/><path d="m406 351c-56.69-56.06-53.825-148-53.825-148s-8.864-13.359-6.199-19.899c46.894-115.103-41.959-152.354-89.976-152.354s-136.871 37.252-89.976 152.355c2.665 6.54-6.199 19.899-6.199 19.899s2.865 91.939-53.825 147.999h27.611c-8.424 8.384-14.634 12.722-14.634 12.722h137.023 137.022s-6.21-4.338-14.634-12.722z" fill="#d36c18"/><path d="m378.39 351c8.42 8.38 14.63 12.72 14.63 12.72h-137.02v-332.97c44.57 0 124.32 32.09 98.04 128.74v.02c-2.03 7.47-4.69 15.33-8.06 23.59-.76 1.86-.59 4.27.05 6.76 1.6 6.29 6.14 13.14 6.14 13.14s-2.86 91.94 53.83 148z" fill="#ad4b07"/><path d="m199.97 260.488h112.06v118.84h-112.06z" fill="#f7a969"/><path d="m256 260.491h56.03v118.84h-56.03z" fill="#ea8d4e"/><path d="m385.54 332.29h-73.51v.002h-112.06v-.002h-73.5c-41.82 0-75.88 33.26-77.16 74.77 46.57 63.62 121.81 104.94 206.69 104.94s160.12-41.32 206.69-104.94c-1.27-41.52-35.32-74.77-77.15-74.77z" fill="#ffbf85"/><path d="m462.69 407.06c-46.57 63.62-121.81 104.94-206.69 104.94v-179.71h129.54c41.83 0 75.88 33.25 77.15 74.77z" fill="#f7a969"/><path d="m349.62 151.149c-3.955-60.043-52.523-82.233-93.62-82.233s-89.666 22.19-93.62 82.233c-10.627 2.055-18.177 15.995-16.988 27.265l1.822 25.648c1.247 11.835 11.65 20.476 23.115 19.19l1.977-.214c23.485 63.063 60.316 69.638 83.694 73.33 23.378-3.692 60.209-10.267 83.694-73.33l1.977.214c11.465 1.286 21.868-7.354 23.115-19.19l1.822-25.648c1.189-11.27-6.36-25.21-16.988-27.265z" fill="#ffbf85"/><path d="m366.609 178.414-1.822 25.648c-1.247 11.835-11.65 20.476-23.115 19.19l-1.977-.214c-8.026 21.528-17.602 36.48-27.664 46.971-19.404 20.242-40.63 23.924-56.03 26.359v-227.452c41.097 0 89.665 22.19 93.62 82.233 10.627 2.055 18.176 15.995 16.988 27.265z" fill="#f7a969"/><path d="m275.826 204.523c-11.431-9.719-28.221-9.719-39.652 0-12.748 10.838-28.758 17.094-45.477 17.771l-18.392.744 1.233 7.414c6.705 40.322 41.586 69.882 82.461 69.882 41.791-2.318 76.381-33.318 83.247-74.606l.447-2.69-18.392-.744c-16.717-.677-32.727-6.933-45.475-17.771z" fill="#efebdc"/><path d="m339.69 223.04-.44 2.69c-3.43 20.65-12.49 39.84-27.22 53.04s-35.13 20.41-56.03 21.56v-103.1c7.06 0 14.12 2.43 19.83 7.29 12.74 10.84 28.75 17.1 45.47 17.77z" fill="#d6cfbd"/><path d="m357.69 110.424c-3.357-36.814-47.487-71.871-101.69-71.871-51.339 0-91.107 34.639-95.115 59.901l-.003-.002c-.003.022-.005.045-.008.067-.112.717-.195 1.425-.248 2.126-4.177 38.464 9.353 85.247 9.353 85.247l14.683-40.13c9.292 6.816 21.341 11.861 36.322 13.429 41.252 4.317 95.215-15.11 124.955 30.939-.001 0 15.109-42.891 11.751-79.706z" fill="#d36c18"/><path d="m354.04 159.49v.02c-3.26 16.23-7.34 28.41-8.01 30.35-.06.18-.09.27-.09.27-21.81-33.77-56.64-32.33-89.94-30.86v-120.72c54.2 0 98.33 35.06 101.69 71.87 1.52 16.62-.73 34.48-3.65 49.07z" fill="#ad4b07"/><path d="m422.92 450.09c-44.81 38.58-103.15 61.91-166.92 61.91s-122.11-23.33-166.92-61.91l80.42-117.8h30.47l-19.37 85.36 75.4 28.93 75.4-28.93-19.37-85.36h30.47z" fill="#ff4571"/><path d="m422.92 450.09c-44.81 38.58-103.15 61.91-166.92 61.91v-65.42l75.4-28.93-12.24-53.93-7.13-31.43h30.47l21.46 31.43z" fill="#e52541"/></g></svg>