<svg id="Layer_1" enable-background="new 0 0 512 512" height="512" viewBox="0 0 512 512" width="512" xmlns="http://www.w3.org/2000/svg"><g><g><g><path d="m512 256c0 56.5-18.31 108.72-49.31 151.06-46.57 63.62-121.81 39.523-206.69 39.523s-160.12 24.097-206.69-39.523c-31-42.34-49.31-94.56-49.31-151.06 0-141.38 114.62-256 256-256s256 114.62 256 256z" fill="#ef9b14"/></g></g><path d="m256 446.583c84.88 0 160.12 24.097 206.69-39.523 31-42.34 49.31-94.56 49.31-151.06 0-11.672-.797-23.157-2.31-34.415l-183.171-183.17-169.904 181.418 35.29 35.761c3.51 12.634 43.018 70.691 51.428 80.072l-194.023 71.394c46.57 63.62 121.81 39.523 206.69 39.523z" fill="#db8200"/><g><path d="m385.54 332.29h-73.51v.002h-112.06v-.002h-73.5c-41.82 0-75.88 33.26-77.16 74.77 46.57 63.62 121.81 104.94 206.69 104.94s160.12-41.32 206.69-104.94c-1.27-41.52-35.32-74.77-77.15-74.77z" fill="#584b66"/><path d="m462.69 407.06c-46.57 63.62-121.81 104.94-206.69 104.94v-179.71h129.54c41.83 0 75.88 33.25 77.15 74.77z" fill="#4a3e56"/><g><path d="m325.998 287.826v40.094c0 13.162-10.67 23.833-23.833 23.833h-92.33c-13.162 0-23.833-10.67-23.833-23.833v-40.094c0-10.542 8.546-19.087 19.087-19.087h101.821c10.542-.001 19.088 8.545 19.088 19.087z" fill="#7b7284"/><path d="m326 287.826v40.094c0 13.159-10.665 23.833-23.824 23.833h-46.176v-83.013h50.913c10.535-.002 19.087 8.542 19.087 19.086z" fill="#635a6d"/></g><path d="m349.62 151.149c-3.955-60.043-52.523-82.233-93.62-82.233s-89.665 22.19-93.62 82.233c-10.628 2.055-18.177 15.995-16.988 27.265l1.822 25.648c1.247 11.835 11.65 20.476 23.115 19.19l1.977-.214c23.485 63.063 60.316 69.638 83.694 73.33 23.378-3.692 60.209-10.267 83.694-73.33l1.977.214c11.465 1.286 21.868-7.354 23.115-19.19l1.822-25.648c1.189-11.27-6.36-25.21-16.988-27.265z" fill="#ffd4a6"/><path d="m366.609 178.414-1.822 25.648c-1.247 11.835-11.65 20.476-23.115 19.19l-1.977-.214c-8.027 21.528-17.602 36.48-27.664 46.971-19.404 20.242-40.629 23.924-56.03 26.359v-227.452c41.097 0 89.665 22.19 93.62 82.233 10.627 2.055 18.176 15.995 16.988 27.265z" fill="#ffbb7d"/><path d="m289.354 73.034c-22.146-2.825-44.562-2.825-66.708 0-43.182 5.507-71.574 47.858-60.267 89.895l5.287 27.851h20.667l6.879-33.89c2.584-12.73 15.333-20.675 27.9-17.386l27.16 7.109c3.756.983 7.702.983 11.458 0l27.16-7.109c12.567-3.29 25.316 4.655 27.9 17.386l6.878 33.89h20.667l5.287-27.851c11.306-42.037-17.086-84.388-60.268-89.895z" fill="#d36c18"/><path d="m349.62 162.93-5.29 27.85h-20.66l-6.88-33.89c-2.59-12.73-15.34-20.67-27.9-17.39l-27.16 7.11c-1.88.49-3.81.74-5.73.74v-76.43c11.14 0 22.28.7 33.35 2.11 43.19 5.51 71.58 47.86 60.27 89.9z" fill="#ad4b07"/><path d="m346.57 110.07h-181.14v-19.455c0-43.078 34.922-78 78-78h25.14c43.078 0 78 34.922 78 78z" fill="#7b7284"/><path d="m346.57 90.62v19.45h-90.57v-97.46h12.57c43.08 0 78 34.93 78 78.01z" fill="#635a6d"/><path d="m275.826 204.523c-11.431-9.719-28.221-9.719-39.652 0-12.748 10.838-28.758 17.094-45.477 17.771l-18.392.744 1.233 7.414c6.705 40.322 41.586 69.882 82.461 69.882 41.791-2.318 76.381-33.318 83.247-74.606l.447-2.69-18.392-.744c-16.717-.677-32.727-6.933-45.475-17.771z" fill="#efebdc"/><path d="m339.69 223.04-.44 2.69c-3.43 20.65-13.8 38.72-28.53 51.92s-33.82 21.53-54.72 22.68v-103.1c7.06 0 14.12 2.43 19.83 7.29 12.74 10.84 28.75 17.1 45.47 17.77z" fill="#d6cfbd"/><path d="m346.069 162.065h-180.138c-11.494 0-20.898-9.404-20.898-20.898v-24.637c0-11.494 9.404-20.898 20.898-20.898h180.139c11.494 0 20.898 9.404 20.898 20.898v24.637c0 11.494-9.404 20.898-20.899 20.898z" fill="#635a6d"/><path d="m366.97 116.53v24.64c0 11.49-9.41 20.89-20.9 20.89h-90.07v-66.43h90.07c.17 0 .34 0 .5.01 11.26.27 20.4 9.57 20.4 20.89z" fill="#4a3e56"/></g></g></svg>