<svg id="Layer_1" enable-background="new 0 0 512 512" height="512" viewBox="0 0 512 512" width="512" xmlns="http://www.w3.org/2000/svg"><g><g><g><path d="m511.999 255.28c.152 53.911-16.379 103.973-44.722 145.306-1.361 1.984-125.862 45.757-210.741 45.996-84.88.239-210.119-43.527-211.723-45.862-28.133-40.971-44.662-90.547-44.812-144-.397-141.38 113.9-256.322 255.279-256.719s256.322 113.9 256.719 255.279z" fill="#584b66"/></g></g><path d="m467.277 400.586c28.343-41.333 44.873-91.394 44.722-145.306-.046-16.387-1.65-32.404-4.636-47.927l-141.357-141.873s-201.47 268.401-263.891 354.351c44.259 12.659 105.923 26.887 154.42 26.751 84.88-.238 209.381-44.011 210.742-45.996z" fill="#3d3449"/><g><path d="m404.334 409.958c-27.542 22.76-41.822-16.936-77.551-16.936-35.731 0-35.731 19.127-71.461 19.127-35.732 0-35.732-19.127-71.465-19.127s-50.01 39.696-77.556 16.936c-22.759-18.804 15.655-36.896 15.655-66.419 0-29.522-19.127-29.522-19.127-59.044 0-29.526 19.127-29.526 19.127-59.052s-19.127-29.526-19.127-59.052c0-18.053 21.991-31.604 28.501-47.302 6.748-16.274 1.034-41.346 13.298-53.61s37.336-6.55 53.61-13.298c15.699-6.51 20.233-27.099 57.074-27.099s41.387 20.589 57.085 27.099c16.274 6.748 41.345 1.034 53.61 13.298 12.264 12.264 6.55 37.336 13.298 53.61 6.51 15.699 28.501 29.249 28.501 47.302 0 29.523-19.128 29.523-19.128 59.046 0 29.522 19.128 29.522 19.128 59.044 0 29.526-26.505 33.047-18.796 61.549 9.376 34.667 38.084 45.12 15.324 63.928z" fill="#ffea92"/><path d="m404.334 409.96c-27.54 22.76-41.82-16.94-77.55-16.94-10.57 0-18.01 1.67-24.17 4.02-14.57 5.57-22 14.96-46.7 15.11v-387.07c36.29.22 40.87 20.63 56.48 27.1 16.28 6.75 41.35 1.04 53.61 13.3 12.27 12.26 6.55 37.34 13.3 53.61 6.51 15.7 28.5 29.25 28.5 47.3 0 29.52-19.13 29.52-19.13 59.05 0 29.52 19.13 29.52 19.13 59.04 0 23.99-17.49 30.81-19.92 47.81-.56 3.92-.32 8.39 1.13 13.74 9.37 34.67 38.08 45.12 15.32 63.93z" fill="#f7d854"/><path d="m199.884 260.488h112.06v118.84h-112.06z" fill="#f7a969"/><path d="m255.914 260.491h56.03v118.84h-56.03z" fill="#ea8d4e"/><path d="m385.454 332.29h-73.51v.002h-112.06v-.002h-73.5c-41.82 0-75.88 33.26-77.16 74.77 46.57 63.62 121.81 104.94 206.69 104.94s160.12-41.32 206.69-104.94c-1.27-41.52-35.32-74.77-77.15-74.77z" fill="#ffbf85"/><path d="m462.604 407.06c-46.57 63.62-121.81 104.94-206.69 104.94v-179.71h129.54c41.83 0 75.88 33.25 77.15 74.77z" fill="#f7a969"/><path d="m349.535 151.149c-3.955-60.043-52.523-82.233-93.62-82.233s-89.666 22.19-93.62 82.233c-10.628 2.055-18.177 15.995-16.988 27.265l1.822 25.648c1.247 11.835 11.65 20.475 23.115 19.19l1.977-.214c23.485 63.063 60.316 69.638 83.694 73.33 23.378-3.692 60.209-10.267 83.694-73.33l1.977.214c11.465 1.286 21.868-7.354 23.115-19.19l1.822-25.648c1.188-11.27-6.361-25.209-16.988-27.265z" fill="#ffbf85"/><path d="m366.523 178.414-1.822 25.648c-1.247 11.835-11.65 20.475-23.115 19.19l-1.977-.214c-8.027 21.528-17.602 36.48-27.664 46.971-19.404 20.242-40.629 23.924-56.03 26.359v-227.452c41.097 0 89.665 22.19 93.62 82.233 10.627 2.056 18.176 15.995 16.988 27.265z" fill="#f7a969"/><path d="m275.74 204.523c-11.431-9.719-28.221-9.719-39.652 0-12.748 10.838-28.758 17.094-45.477 17.771l-18.392.744 1.233 7.414c6.705 40.322 41.586 69.882 82.461 69.882 41.791-2.318 76.381-33.318 83.247-74.606l.447-2.69-18.392-.744c-16.717-.676-32.727-6.933-45.475-17.771z" fill="#efebdc"/><path d="m339.604 223.04-.44 2.69c-3.43 20.65-12.49 39.84-27.22 53.04s-35.13 20.41-56.03 21.56v-103.1c7.06 0 14.12 2.43 19.83 7.29 12.74 10.84 28.75 17.1 45.47 17.77z" fill="#d6cfbd"/><path d="m328.498 73.5c-12.986-12.912-18.055-14.702-27.326-18.727-24.541-10.653-52.252-11.096-77.507-2.269-32.374 11.315-76.322 39.259-73.378 107.391l21.934 33.772 15.437-29.388c28.485-.77 68.973-10.595 105.924-51.279l43.745 80.667 21.934-36.679c-.002 0 .582-52.321-30.763-83.488z" fill="#ffea92"/><path d="m359.254 156.99-21.93 36.68-43.74-80.67c-12.35 13.6-25.1 23.76-37.67 31.27v-97.89c15.42-.58 30.89 2.15 45.26 8.39 9.27 4.03 14.34 5.82 27.32 18.73 31.35 31.17 30.76 83.49 30.76 83.49z" fill="#f7d854"/><path d="m467.224 400.55c-46.12 67.3-123.56 111.45-211.31 111.45-87.66 0-165.03-44.06-211.16-111.24l.85-6.61c4.56-35.37 34.68-61.86 70.34-61.86h83.94s2.08 107.44 56.12 140.71c54.03-33.27 56.11-140.71 56.11-140.71h83.94c35.66 0 65.78 26.49 70.34 61.86z" fill="#4779f4"/><path d="m467.224 400.55c-46.12 67.3-123.56 111.45-211.31 111.45v-39.06c.03.02.06.04.09.06 25.03-15.42 38.92-46.76 46.61-75.96 8.9-33.82 9.5-64.75 9.5-64.75h83.94c35.66 0 65.78 26.49 70.34 61.86z" fill="#2357cc"/></g></g></svg>