<svg id="Layer_1" enable-background="new 0 0 512 512" height="512" viewBox="0 0 512 512" width="512" xmlns="http://www.w3.org/2000/svg"><g><g><g><path d="m512 256c0 56.5-18.31 108.72-49.31 151.06-46.57 63.62-121.81 39.523-206.69 39.523s-160.12 24.097-206.69-39.523c-31-42.34-49.31-94.56-49.31-151.06 0-141.38 114.62-256 256-256s256 114.62 256 256z" fill="#ffea92"/></g></g><path d="m256 446.583c84.88 0 160.12 24.097 206.69-39.523 31-42.34 49.31-94.56 49.31-151.06 0-9.247-.502-18.376-1.458-27.369l-159.612-159.611-270.463 366.528c45.829 26.466 107.591 11.035 175.533 11.035z" fill="#f7d854"/><g><path d="m385.13 351.329h-258.26v-196.296c0-69.192 56.091-125.283 125.283-125.283h7.693c69.192 0 125.284 56.091 125.284 125.283z" fill="#af4b00"/><path d="m385.127 151.464v199.865h-129.127v-321.579h7.413c67.221 0 121.714 54.494 121.714 121.714z" fill="#7f3706"/><path d="m199.97 260.488h112.06v118.84h-112.06z" fill="#f7a969"/><path d="m256 260.491h56.03v118.84h-56.03z" fill="#ea8d4e"/><path d="m385.54 332.29h-73.51v.002h-112.06v-.002h-73.5c-41.82 0-75.88 33.26-77.16 74.77 46.57 63.62 121.81 104.94 206.69 104.94s160.12-41.32 206.69-104.94c-1.27-41.52-35.32-74.77-77.15-74.77z" fill="#ffbf85"/><path d="m462.69 407.06c-46.57 63.62-121.81 104.94-206.69 104.94v-179.71h129.54c41.83 0 75.88 33.25 77.15 74.77z" fill="#f7a969"/><path d="m385.13 332.29v144.79c-37.91 22.2-82.03 34.92-129.13 34.92s-91.22-12.72-129.13-34.92v-144.79h40.24v83.61h177.78v-83.61z" fill="#584b66"/><path d="m385.13 332.29v144.79c-37.91 22.2-82.03 34.92-129.13 34.92v-96.1h88.89v-83.61z" fill="#3d3449"/><path d="m349.62 151.149c-3.955-60.043-52.523-82.233-93.62-82.233s-89.666 22.19-93.62 82.233c-10.628 2.055-18.177 15.995-16.988 27.265l1.822 25.648c1.247 11.835 11.65 20.476 23.115 19.19l1.977-.214c23.485 63.063 60.316 69.638 83.694 73.33 23.378-3.692 60.209-10.267 83.694-73.33l1.977.214c11.465 1.286 21.868-7.354 23.115-19.19l1.822-25.648c1.189-11.27-6.36-25.21-16.988-27.265z" fill="#ffbf85"/><path d="m366.609 178.414-1.822 25.648c-1.247 11.835-11.65 20.476-23.115 19.19l-1.977-.214c-8.027 21.528-17.602 36.48-27.664 46.971-19.404 20.242-40.63 23.924-56.03 26.359v-227.452c41.097 0 89.665 22.19 93.62 82.233 10.627 2.055 18.176 15.995 16.988 27.265z" fill="#f7a969"/><path d="m275.826 204.523c-11.431-9.719-28.221-9.719-39.652 0-12.748 10.838-28.758 17.094-45.477 17.771l-18.392.744 1.233 7.414c6.705 40.322 41.586 69.882 82.461 69.882 41.791-2.318 76.381-33.318 83.247-74.606l.447-2.69-18.392-.744c-16.717-.677-32.727-6.933-45.475-17.771z" fill="#efebdc"/><path d="m339.69 223.04-.44 2.69c-3.43 20.65-12.49 39.84-27.22 53.04s-35.13 20.41-56.03 21.56v-103.1c7.06 0 14.12 2.43 19.83 7.29 12.74 10.84 28.75 17.1 45.47 17.77z" fill="#d6cfbd"/><path d="m256 41.431c-105.647 0-110.837 82.512-98.451 109.46l6.719 25.304 43.686-65.529s19.187 46.804 82.06 46.117l-2.278-26.975 44.02 15.784 20.616 30.603 10.826-23.805c-.002 0-1.551-110.959-107.198-110.959z" fill="#af4b00"/><path d="m363.199 152.387-10.833 23.812-20.616-30.603-44.02-15.788 2.283 26.97c-13.184.146-24.444-1.797-34.013-4.955v-110.395c105.645 0 107.199 110.959 107.199 110.959z" fill="#7f3706"/></g></g></svg>