<svg id="Layer_1" enable-background="new 0 0 512 512" height="512" viewBox="0 0 512 512" width="512" xmlns="http://www.w3.org/2000/svg"><g><g><g><path d="m512 256c0 56.5-18.31 108.72-49.31 151.06-46.57 63.62-121.81 39.523-206.69 39.523s-160.12 24.097-206.69-39.523c-31-42.34-49.31-94.56-49.31-151.06 0-141.38 114.62-256 256-256s256 114.62 256 256z" fill="#ff57cc"/></g></g><path d="m256 446.583c84.88 0 160.12 24.097 206.69-39.523 31-42.34 49.31-94.56 49.31-151.06 0-7.056-.298-14.042-.858-20.954l-174.232-174.232-183.54 156.316 135.012 134.854c4.257 15.391-244 46.802-244.813 46.905 1.862 2.762 3.775 5.487 5.741 8.171 46.57 63.62 121.81 39.523 206.69 39.523z" fill="#e224ba"/><g><path d="m199.97 260.488h112.06v118.84h-112.06z" fill="#f7a969"/><path d="m256 260.491h56.03v118.84h-56.03z" fill="#ea8d4e"/><path d="m377.437 446.586h-242.874l65.407-114.294h112.06z" fill="#ffbf85"/><path d="m256 332.292h121.44v114.291h-121.44z" fill="#f7a969"/><path d="m462.69 407.06c-46.57 63.62-121.81 104.94-206.69 104.94s-160.12-41.32-206.69-104.94c1.28-41.51 35.34-74.77 77.16-74.77h73.5l56.03 65.21 56.03-65.21h73.51c41.83 0 75.88 33.25 77.15 74.77z" fill="#d6cfbd"/><path d="m462.69 407.06c-46.57 63.62-121.81 104.94-206.69 104.94v-114.5l56.03-65.21h73.51c4.08 0 8.09.32 11.99.93 36.17 5.63 64.01 36.37 65.16 73.84z" fill="#bab3a2"/><path d="m199.97 332.29 56.03 65.21-62.583 39.5-23.843-73.667z" fill="#efebdc"/><path d="m312.03 332.29-56.03 65.21 62.583 39.5 23.843-73.667z" fill="#efebdc"/><path d="m349.62 151.149c-3.955-60.043-52.523-82.233-93.62-82.233s-89.666 22.19-93.62 82.233c-10.628 2.056-18.177 15.995-16.988 27.265l1.822 25.648c1.247 11.835 11.65 20.476 23.115 19.19l1.977-.214c23.485 63.063 60.316 69.638 83.694 73.33 23.378-3.692 60.209-10.267 83.694-73.33l1.977.214c11.465 1.286 21.868-7.354 23.115-19.19l1.822-25.648c1.189-11.27-6.36-25.209-16.988-27.265z" fill="#ffbf85"/><path d="m366.609 178.414-1.822 25.648c-1.247 11.835-11.65 20.476-23.115 19.19l-1.977-.214c-8.027 21.528-17.602 36.48-27.664 46.971-19.404 20.242-40.63 23.924-56.03 26.359v-227.452c41.097 0 89.665 22.19 93.62 82.233 10.627 2.056 18.176 15.995 16.988 27.265z" fill="#f7a969"/><path d="m275.826 204.523c-11.431-9.718-28.221-9.718-39.652 0-12.748 10.838-28.758 17.094-45.477 17.771l-18.392.744 1.233 7.414c6.705 40.322 41.586 69.882 82.461 69.882 41.791-2.318 76.381-33.318 83.247-74.606l.447-2.69-18.392-.744c-16.717-.677-32.727-6.933-45.475-17.771z" fill="#efebdc"/><path d="m339.69 223.04-.44 2.69c-3.43 20.65-12.49 39.84-27.22 53.04s-35.13 20.41-56.03 21.56v-103.1c7.06 0 14.12 2.43 19.83 7.29 12.74 10.84 28.75 17.1 45.47 17.77z" fill="#d6cfbd"/><path d="m162.726 179.642h15l24-52.642s27.774 34.25 78.274 38.25l-9.006-27.534s20.86 7.493 48.863 10.303l14.417 31.622h15c10.114-39.299 31.76-146.974-93.274-146.974s-103.388 107.675-93.274 146.975z" fill="#584b66"/><path d="m349.27 179.64h-15l-14.41-31.62c-28.01-2.81-48.87-10.3-48.87-10.3l9.01 27.53c-8.68-.69-16.69-2.27-24-4.42v-128.16c125.03 0 103.39 107.67 93.27 146.97z" fill="#3d3449"/><path d="m199.97 332.29v173.55c-64.86-14.47-120.43-53.56-156.41-106.95 4.55-37.53 36.51-66.6 75.26-66.6z" fill="#7b7284"/><path d="m468.44 398.89c-35.98 53.39-91.55 92.48-156.41 106.95v-173.55h81.15c38.75 0 70.71 29.07 75.26 66.6z" fill="#584b66"/><path d="m199.97 332.29v173.55c-24.97-5.57-48.57-14.79-70.2-27.08l36.05-49.76-34.15-25z" fill="#9d97a5"/><path d="m382.23 478.76c-21.63 12.29-45.23 21.51-70.2 27.08v-173.55l68.3 71.71-34.15 25z" fill="#7f7887"/></g></g></svg>