<svg id="Layer_1" enable-background="new 0 0 512 512" height="512" viewBox="0 0 512 512" width="512" xmlns="http://www.w3.org/2000/svg"><g><g><g><path d="m512 256c0 56.5-18.31 108.72-49.31 151.06-46.57 63.62-121.81 39.523-206.69 39.523s-160.12 24.097-206.69-39.523c-31-42.34-49.31-94.56-49.31-151.06 0-141.38 114.62-256 256-256s256 114.62 256 256z" fill="#a23ace"/></g></g><path d="m256 446.583c84.88 0 160.12 24.097 206.69-39.523 31-42.34 49.31-94.56 49.31-151.06 0-14.828-1.277-29.356-3.697-43.493l-173.643-173.644-213.14 123.467 33.918 32.857-1.659 22.349 31.298 31.296c4.313 15.435 24.347 30.586 24.423 30.668l15.25 106.75c-41.82 0-175.44 20.81-175.44 20.81 46.57 63.62 121.81 39.523 206.69 39.523z" fill="#7728a0"/><g><path d="m199.97 260.488h112.06v118.84h-112.06z" fill="#ffbb7d"/><path d="m256 260.491h56.03v118.84h-56.03z" fill="#efa36a"/><path d="m134.563 332.292h242.875v114.294h-242.875z" fill="#ffd4a6"/><path d="m256 332.292h121.44v114.291h-121.44z" fill="#ffbb7d"/><path d="m462.69 407.06c-46.57 63.62-121.81 104.94-206.69 104.94s-160.12-41.32-206.69-104.94c1.28-41.51 35.34-74.77 77.16-74.77h73.5v9.18c0 30.94 25.09 56.03 56.03 56.03 15.47 0 29.48-6.27 39.62-16.41s16.41-24.15 16.41-39.62v-9.18h73.51c41.83 0 75.88 33.25 77.15 74.77z" fill="#d6cfbd"/><path d="m462.69 407.06c-46.57 63.62-121.81 104.94-206.69 104.94v-114.5c15.47 0 29.48-6.27 39.62-16.41s16.41-24.15 16.41-39.62v-9.18h73.51c41.83 0 75.88 33.25 77.15 74.77z" fill="#bab3a2"/><path d="m349.62 151.149c-3.955-60.043-52.523-82.233-93.62-82.233s-89.665 22.19-93.62 82.233c-10.628 2.056-18.177 15.995-16.988 27.265l1.822 25.648c1.247 11.835 11.65 20.476 23.115 19.19l1.977-.214c23.485 63.063 60.316 69.638 83.694 73.33 23.378-3.692 60.209-10.267 83.694-73.33l1.977.214c11.465 1.286 21.868-7.354 23.115-19.19l1.822-25.648c1.189-11.27-6.36-25.209-16.988-27.265z" fill="#ffd4a6"/><path d="m366.609 178.414-1.822 25.648c-1.247 11.835-11.65 20.476-23.115 19.19l-1.977-.214c-8.027 21.528-17.602 36.48-27.664 46.971-19.404 20.242-40.629 23.924-56.03 26.359v-227.452c41.097 0 89.665 22.19 93.62 82.233 10.627 2.056 18.176 15.995 16.988 27.265z" fill="#ffbb7d"/><path d="m290.367 68.43c-22.819-2.91-45.915-2.91-68.734 0-44.494 5.674-73.749 49.312-62.098 92.626l5.448 28.697h21.294l7.088-34.919c2.662-13.117 15.799-21.303 28.747-17.914l27.985 7.325c3.87 1.013 7.936 1.013 11.806 0l27.985-7.325c12.948-3.389 26.085 4.797 28.747 17.914l7.087 34.919h21.294l5.448-28.697c11.652-43.315-17.603-86.952-62.097-92.626z" fill="#584b66"/><path d="m353.43 157c-.28 1.35-.61 2.71-.97 4.06l-5.44 28.69h-21.3l-6.64-32.75-.44-2.17c-2.67-13.11-15.8-21.3-28.75-17.91l-27.99 7.32c-1.94.51-3.92.76-5.9.76v-78.75c11.48 0 22.96.73 34.37 2.18 14.01 1.78 26.51 7.33 36.69 15.46 11.09 8.83 19.45 20.72 24.02 34.11 1.11 3.25 2 6.59 2.64 10 1.79 9.32 1.79 19.14-.29 29z" fill="#3d3449"/><path d="m275.826 204.523c-11.431-9.718-28.221-9.718-39.652 0-12.748 10.838-28.758 17.094-45.477 17.771l-18.392.744 1.233 7.414c6.705 40.322 41.586 69.882 82.461 69.882 41.791-2.318 76.381-33.318 83.247-74.606l.447-2.69-18.392-.744c-16.717-.677-32.727-6.933-45.475-17.771z" fill="#efebdc"/><path d="m339.69 223.04-.44 2.69c-3.43 20.65-13.8 38.72-28.53 51.92s-33.82 21.53-54.72 22.68v-103.1c7.06 0 14.12 2.43 19.83 7.29 12.74 10.84 28.75 17.1 45.47 17.77z" fill="#d6cfbd"/><path d="m390.48 162.33h-268.96l26.66-40.37 12.153-7.293-1.453-25.047 9.56-33.75c6.99-24.68 31.42-37.77 53.37-28.61l11.02 4.6c14.93 6.24 31.41 6.24 46.34 0l11.02-4.6c21.95-9.16 46.38 3.93 53.37 28.61l9.56 33.75-13.12 25.38 23.82 6.96z" fill="#ef9b14"/><path d="m390.48 162.33h-134.48v-125.79c7.85 0 15.7-1.56 23.17-4.68l11.02-4.6c21.95-9.16 46.38 3.93 53.37 28.61l9.56 33.75-13.12 25.38 23.82 6.96z" fill="#db8200"/><path d="m363.82 121.96h-215.64l2.68-4.05 8.02-28.29h194.24l8.02 28.29z" fill="#af4b00"/><path d="m363.82 121.96h-107.82v-32.34h97.12l8.02 28.29z" fill="#7f3706"/></g></g></svg>