<svg id="Layer_1" height="512" viewBox="0 0 512 512" width="512" xmlns="http://www.w3.org/2000/svg" data-name="Layer 1"><circle cx="256" cy="256" fill="#FFCA28" r="256" transform="matrix(.707 -.707 .707 .707 -106.039 256)"/><g fill="#6D4C41" fill-rule="evenodd"><path d="m142.461 164.108-29.191-16.855a16 16 0 0 1 16-27.711l84.861 48.989a16 16 0 1 1 -16 27.715l-.71-.407a32.036 32.036 0 1 1 -54.959-31.731z"/><path d="m404.582 125.4a16 16 0 0 1 -5.852 21.858l-29.19 16.854a32.033 32.033 0 1 1 -54.96 31.731l-.709.405a16 16 0 0 1 -16-27.712l84.86-48.99a16 16 0 0 1 21.851 5.854z"/><path d="m397.551 351.058a16 16 0 1 1 -24.721 20.319 145.968 145.968 0 0 0 -225.66 0 16 16 0 1 1 -24.72-20.319 177.967 177.967 0 0 1 275.1 0z"/></g></svg>