<svg xmlns="http://www.w3.org/2000/svg" version="1.1" xmlns:xlink="http://www.w3.org/1999/xlink" width="512" height="512" x="0" y="0" viewBox="0 0 512 512" style="enable-background:new 0 0 512 512" xml:space="preserve" class=""><g><path d="M456.828 189.595a46.888 46.888 0 0 0-22.634 5.793c-8.266-16.113-25.055-27.166-44.375-27.166a49.608 49.608 0 0 0-28.651 9.068c-9.002-13.053-24.059-21.625-41.079-21.625a49.522 49.522 0 0 0-19.836 4.121V57.879c0-27.496-22.369-49.865-49.865-49.865s-49.865 22.369-49.865 49.865v221.886l-8.633-14.954c-19.467-33.707-61.683-44.544-96.118-24.677-17.064 9.857-22.934 31.752-13.083 48.808l83.194 144.052c26.057 45.116 70.877 70.992 122.97 70.992h73.16c78.292 0 141.987-63.695 141.987-141.988V236.767c0-26.011-21.161-47.172-47.172-47.172zM474 361.998c0 61.75-50.237 111.988-111.987 111.988h-73.16c-41.087 0-76.438-20.41-96.991-55.996l-83.194-144.052c-1.551-2.686-.585-6.27 2.104-7.823 6.981-4.028 14.379-5.96 21.539-5.96 13.552 0 26.245 6.924 33.6 19.657l36.621 63.438a15 15 0 0 0 27.991-7.5V57.879c0-10.954 8.911-19.865 19.865-19.865s19.865 8.911 19.865 19.865v215.369c0 8.284 6.716 15 15 15s15-6.716 15-15v-67.717c0-10.954 8.898-19.865 19.836-19.865s19.865 8.912 19.865 19.865v67.717c0 8.284 6.716 15 15 15s15-6.716 15-15V218.06c0-10.938 8.911-19.837 19.865-19.837s19.837 8.899 19.837 19.837v55.188c0 8.284 6.716 15 15 15s15-6.716 15-15v-36.481c0-9.469 7.703-17.172 17.172-17.172S474 227.298 474 236.767zM68.838 181.385h-.151l-45.835-.453a15.001 15.001 0 0 1-14.85-15.149l.454-45.807c.081-8.232 6.781-14.851 14.996-14.851h.151c8.284.082 14.933 6.864 14.851 15.148l-.094 9.54L73.483 94.69 38.096 59.295 38 68.996c-.081 8.233-6.782 14.852-14.996 14.852h-.151C14.569 83.765 7.92 76.984 8.002 68.7l.454-45.834c.081-8.233 6.78-14.852 14.996-14.852h.142l45.806.425c8.284.077 14.938 6.854 14.86 15.139-.076 8.236-6.777 14.861-14.996 14.861h-.142l-9.546-.089 35.12 35.128 35.128-35.128-9.572.089h-.142c-8.22 0-14.92-6.624-14.996-14.861-.077-8.284 6.576-15.062 14.86-15.139l45.834-.425h.142c8.22 0 14.92 6.624 14.996 14.861l.426 45.834c.077 8.284-6.576 15.062-14.859 15.139h-.143c-8.22 0-14.92-6.624-14.996-14.861l-.09-9.672-35.378 35.378 35.131 35.139-.089-9.567c-.077-8.284 6.575-15.062 14.859-15.139h.143c8.22 0 14.92 6.624 14.996 14.86l.426 45.807c.077 8.281-6.57 15.057-14.851 15.139l-45.835.453h-.151c-8.216 0-14.915-6.618-14.996-14.852-.082-8.284 6.566-15.066 14.851-15.147l9.68-.096-35.376-35.384L59.31 151.29l9.675.096c8.284.082 14.933 6.863 14.851 15.147-.081 8.233-6.781 14.852-14.996 14.852z" fill="#5e5b5b" opacity="1" data-original="#000000"></path></g></svg>