<svg xmlns="http://www.w3.org/2000/svg" width="128" height="128" viewBox="0 0 128 128"><path fill="currentColor" d="M47.617 98.12c-19.192 5.362 11.677 16.439 36.115 5.969c-4.003-1.556-6.874-3.351-6.874-3.351c-10.897 2.06-15.952 2.222-25.844 1.092c-8.164-.935-3.397-3.71-3.397-3.71m33.189-10.46c-14.444 2.779-22.787 2.69-33.354 1.6c-8.171-.845-2.822-4.805-2.822-4.805c-21.137 7.016 11.767 14.977 41.309 6.336c-3.14-1.106-5.133-3.131-5.133-3.131m11.319-60.575c.001 0-42.731 10.669-22.323 34.187c6.024 6.935-1.58 13.17-1.58 13.17s15.289-7.891 8.269-17.777c-6.559-9.215-11.587-13.793 15.634-29.58m9.998 81.144s3.529 2.91-3.888 5.159c-14.102 4.272-58.706 5.56-71.095.171c-4.45-1.938 3.899-4.625 6.526-5.192c2.739-.593 4.303-.485 4.303-.485c-4.952-3.487-32.013 6.85-13.742 9.815c49.821 8.076 90.817-3.637 77.896-9.468M85 77.896c2.395-1.634 5.703-3.053 5.703-3.053s-9.424 1.685-18.813 2.474c-11.494.964-23.823 1.154-30.012.326c-14.652-1.959 8.033-7.348 8.033-7.348s-8.812-.596-19.644 4.644C17.455 81.134 61.958 83.958 85 77.896m5.609 15.145c-.108.29-.468.616-.468.616c31.273-8.221 19.775-28.979 4.822-23.725c-1.312.464-2 1.543-2 1.543s.829-.334 2.678-.72c7.559-1.575 18.389 10.119-5.032 22.286M64.181 70.069c-4.614-10.429-20.26-19.553.007-35.559C89.459 14.563 76.492 1.587 76.492 1.587c5.23 20.608-18.451 26.833-26.999 39.667c-5.821 8.745 2.857 18.142 14.688 28.815m27.274 51.748c-19.187 3.612-42.854 3.191-56.887.874c0 0 2.874 2.38 17.646 3.331c22.476 1.437 57-.8 57.816-11.436c.001 0-1.57 4.032-18.575 7.231"/></svg>