<svg xmlns="http://www.w3.org/2000/svg" width="24" height="24" viewBox="0 0 24 24"><path fill="currentColor" d="m13.334 16.055l-.858 1.188q1.221 1.089 3.036 1.089q1.386-.033 2.112-.715q.737-.693.737-1.65q0-.935-.517-1.54t-1.738-.968q-1.01-.307-1.43-.561q-.418-.264-.418-.638q0-.34.341-.55q.342-.21.913-.209q.419 0 .946.165q.528.143.935.462l.77-1.199q-1.011-.814-2.684-.814q-1.198 0-1.969.616q-.792.615-.792 1.529q.011.968.638 1.507q.638.54 1.815.88q.98.307 1.331.616a.97.97 0 0 1 .341.748a.75.75 0 0 1-.34.66q-.353.242-1.013.242q-1.077.01-2.156-.858m-5.53.638a2.2 2.2 0 0 1-.616-.583l-1.034.847q.463.78 1.144 1.089q.638.285 1.463.286q.45 0 .935-.143t.891-.484q.715-.572.748-1.87v-5.588H9.85v5.302q0 .76-.34 1.067q-.342.297-.859.297q-.495 0-.847-.22M3 6a3 3 0 0 1 3-3h12a3 3 0 0 1 3 3v12a3 3 0 0 1-3 3H6a3 3 0 0 1-3-3zm3-1a1 1 0 0 0-1 1v12a1 1 0 0 0 1 1h12a1 1 0 0 0 1-1V6a1 1 0 0 0-1-1z"/></svg>