<svg xmlns="http://www.w3.org/2000/svg" width="24" height="24" viewBox="0 0 24 24"><path fill="currentColor" d="m12.003 13.121l.605-.289l.138-.646l-.413-.523h-.674l-.413.523l.152.646zm4.292-.331c.043-.464.01-.934-.096-1.389a4.4 4.4 0 0 0-.523-1.307l-1.664 1.5a.33.33 0 0 0-.083.151a.373.373 0 0 0 .261.44zm-3.081-2.242l1.802-1.279a4.18 4.18 0 0 0-2.476-1.197l.123 2.243c.014.054.028.11.07.15c.123.152.33.18.48.083M11.246 8.1l-.22.04a4.2 4.2 0 0 0-2.05 1.129l1.83 1.307c.041.027.11.041.165.041a.377.377 0 0 0 .372-.358l.123-2.2zm-1.293 3.453l-1.637-1.459a4.43 4.43 0 0 0-.619 2.697l2.132-.62a.27.27 0 0 0 .165-.11a.366.366 0 0 0-.04-.508m.178 1.898l-2.187.372a4.34 4.34 0 0 0 1.72 2.16l.839-2.023a.4.4 0 0 0 .013-.22a.37.37 0 0 0-.385-.289m1.871 3.219c.33 0 .647-.04.963-.11q.092-.027.182-.049q.113-.028.217-.06l-1.06-1.913a.6.6 0 0 0-.164-.151c-.152-.083-.33-.028-.44.096l-1.087 1.967c.44.138.908.22 1.389.22m2.325-.687a4.4 4.4 0 0 0 1.32-1.335c.18-.261.317-.537.4-.84l-2.201-.37a.44.44 0 0 0-.193.04a.37.37 0 0 0-.193.427z"/><path fill="currentColor" d="M12.003 2.294c.193 0 .385.041.564.124l6.961 3.315c.358.18.633.51.716.895l1.72 7.47c.096.399 0 .811-.262 1.128l-4.815 5.984a1.31 1.31 0 0 1-1.032.496H8.137a1.31 1.31 0 0 1-1.032-.495L2.29 15.226a1.38 1.38 0 0 1-.261-1.128l1.72-7.47c.096-.4.357-.73.715-.895l6.961-3.329c.18-.069.385-.11.578-.11m6.961 11.212c-.013 0-.027 0-.027-.014a.2.2 0 0 1-.041-.006q-.021-.006-.042-.007l-.036-.005a2 2 0 0 0-.225-.023c-.041 0-.083 0-.138-.014h-.013c-.29-.027-.523-.054-.743-.123a.27.27 0 0 1-.152-.152q0-.01-.007-.013q-.005-.005-.006-.014l-.18-.055a5.4 5.4 0 0 0-.096-1.94a5.7 5.7 0 0 0-.77-1.802l.138-.124v-.028a.3.3 0 0 1 .068-.206c.158-.145.354-.264.588-.407l.032-.02l.061-.034q.031-.014.062-.034a2 2 0 0 0 .234-.138l.023-.018q.022-.013.046-.037l.015-.011q.011-.006.012-.016c.193-.165.234-.44.097-.62a.39.39 0 0 0-.317-.15a.5.5 0 0 0-.302.11l-.028.027q-.02.011-.034.027t-.035.028v.001a2 2 0 0 0-.205.22a.4.4 0 0 1-.07.068a3.5 3.5 0 0 1-.55.495a.22.22 0 0 1-.124.041c-.027 0-.055 0-.082-.014h-.028l-.165.11a7 7 0 0 0-.564-.522a5.5 5.5 0 0 0-2.875-1.142l-.014-.179l-.028-.027l-.015-.016a.26.26 0 0 1-.095-.163c-.013-.205.01-.434.036-.687l.005-.056v-.014c0-.041.014-.096.028-.138c.014-.082.028-.165.041-.26v-.125c0-.247-.192-.454-.426-.454c-.11 0-.22.055-.303.138a.44.44 0 0 0-.124.316v.11c0 .097.014.18.042.262q.01.032.014.069q.004.03.013.068v.014l.018.166c.024.21.045.402.023.577a.26.26 0 0 1-.094.163l-.016.016l-.027.027l-.014.18a5.3 5.3 0 0 0-3.467 1.65l-.137-.096h-.028q-.02 0-.041.007a.2.2 0 0 1-.041.006a.22.22 0 0 1-.124-.04a3.7 3.7 0 0 1-.577-.54c-.02-.022-.042-.047-.07-.066a2 2 0 0 0-.179-.193l-.023-.018q-.021-.013-.045-.037l-.015-.011q-.013-.005-.013-.016a.48.48 0 0 0-.303-.11a.39.39 0 0 0-.316.151c-.138.179-.096.454.096.62q.01 0 .014.006t.014.007q.02.011.034.027t.034.028c.083.055.152.096.234.138a.6.6 0 0 1 .124.068l.03.019c.235.143.431.263.59.408c.068.069.068.137.068.206v.028l.138.123l-.025.034q-.028.036-.044.077a5.36 5.36 0 0 0-.77 3.632l-.18.055q0 .009-.006.013q-.006.005-.007.014a.32.32 0 0 1-.152.151c-.206.07-.453.097-.742.124h-.014c-.041 0-.096 0-.138.014c-.072 0-.144.01-.225.022l-.036.005q-.021.001-.041.007a.2.2 0 0 1-.042.007c-.013 0-.027 0-.041.014a.45.45 0 0 0-.358.509c.042.193.22.316.44.316c.042 0 .07 0 .11-.013c.042 0 .07-.028.11-.028a1.3 1.3 0 0 0 .248-.096l.062-.027q.03-.016.062-.028h.014c.261-.097.495-.179.715-.207h.028c.077 0 .13.036.17.063l.009.006q.01.001.013.007q.005.007.014.007l.193-.027a5.44 5.44 0 0 0 1.802 2.586c.193.151.385.275.592.399l-.083.179q.001.01.007.014t.007.013c.027.055.055.124.027.22a4 4 0 0 1-.357.647v.014q-.021.03-.042.055l-.04.055c-.042.05-.075.102-.112.159l-.04.06a.3.3 0 0 0-.042.07c0 .013-.013.027-.013.027c-.11.234-.028.495.179.592q.082.04.165.041c.165 0 .33-.11.412-.261c0-.014.014-.028.014-.028c.014-.027.028-.055.041-.069c.028-.064.043-.116.059-.168l.024-.08l.041-.123l.033-.093c.08-.233.147-.425.256-.595a.3.3 0 0 1 .143-.108l.036-.016c.014 0 .014 0 .027-.014l.097-.178a5.4 5.4 0 0 0 1.926.357c.399 0 .812-.041 1.197-.137q.363-.082.715-.207l.083.152c.014 0 .014 0 .027.013a.26.26 0 0 1 .179.124c.101.178.18.39.266.627l.023.061v.014l.041.124q.014.041.025.082c.015.055.03.11.058.165l.02.035q.01.014.021.034c0 .014.014.028.014.028a.47.47 0 0 0 .412.261q.083 0 .166-.041a.4.4 0 0 0 .206-.248a.5.5 0 0 0-.027-.344q-.001-.01-.007-.014q-.007-.004-.007-.013a.3.3 0 0 0-.042-.07a1.2 1.2 0 0 0-.15-.22l-.042-.054l-.041-.055v-.014l-.025-.039c-.142-.218-.268-.413-.333-.608a.3.3 0 0 1 .004-.178l.01-.042q0-.01.006-.014q.006-.003.007-.013l-.068-.165a5.3 5.3 0 0 0 1.816-1.775a5.3 5.3 0 0 0 .577-1.238l.165.027q.01 0 .014-.007q.005-.005.014-.006l.04-.023a.25.25 0 0 1 .139-.046h.027c.22.027.454.11.716.206h.013q.032.011.062.027q.031.016.062.028c.083.041.152.069.248.096a.2.2 0 0 1 .041.007q.021.007.041.007c.014 0 .028 0 .042.014a.463.463 0 0 0 .55-.303c0-.165-.151-.385-.399-.454z"/></svg>