<svg version="1.1" id="Layer_1" xmlns="http://www.w3.org/2000/svg" xmlns:xlink="http://www.w3.org/1999/xlink" x="0px" y="0px"
	 width="100%" viewBox="0 0 200 200" enable-background="new 0 0 200 200" xml:space="preserve" transform="scale(1.25)">
<path fill="#683BB8" opacity="1.000000" stroke="none" 
	d="
M96.146301,161.009323 
	C95.508568,164.940933 93.134308,164.263535 90.739365,162.913712 
	C79.665764,156.672531 68.570976,150.464920 57.606995,144.035172 
	C52.903301,141.276718 48.499180,138.007416 44.009647,134.135254 
	C44.001175,114.523491 43.941998,95.746704 43.882824,76.969917 
	C43.878632,72.353050 45.974808,68.873314 49.862144,66.561127 
	C64.508781,57.849308 79.221092,49.247787 93.859100,40.521595 
	C100.507446,36.558300 106.777306,39.946388 113.038910,41.449226 
	C123.875313,44.050053 134.618210,47.050499 145.358521,50.033810 
	C147.723206,50.690639 149.913147,51.976486 153.617004,53.601631 
	C150.222534,56.028938 148.162735,57.768040 145.866470,59.099251 
	C133.887787,66.043610 121.839973,72.868568 109.835442,79.768532 
	C104.795425,82.665421 99.767464,83.774834 93.854332,82.026848 
	C82.599892,78.699936 71.188309,75.875290 59.754387,73.219139 
	C58.189476,72.855598 55.116734,74.208664 54.521690,75.554047 
	C53.610538,77.614166 52.969479,80.324013 56.423782,82.172333 
	C65.710922,87.141678 74.782028,92.527924 83.809372,97.963753 
	C87.966881,100.467194 91.821678,103.473358 95.893646,107.043297 
	C96.031151,125.559792 96.088730,143.284561 96.146301,161.009323 
z"/>
<path fill="#683BB7" opacity="1.000000" stroke="none" 
	d="
M158.841034,133.061874 
	C155.944702,135.742676 153.406479,139.026215 150.088577,140.997421 
	C137.360550,148.559296 124.363304,155.666794 111.514534,163.027664 
	C109.109573,164.405441 107.243019,164.751419 105.974548,160.920319 
	C105.965027,142.346725 105.963135,124.614799 105.961243,106.882874 
	C107.530052,105.156197 108.798607,102.922958 110.716919,101.785912 
	C122.263954,94.941536 133.960342,88.349182 145.605057,81.669518 
	C146.174774,81.342720 146.728699,80.988373 148.262192,80.055397 
	C142.808411,76.809990 138.306870,74.131248 132.492996,70.671585 
	C137.128296,68.931213 141.867645,65.572319 143.742081,66.754807 
	C148.658508,69.856285 156.185059,69.960480 158.039871,78.082153 
	C158.032806,95.392181 157.998535,111.858597 158.046005,128.324768 
	C158.050552,129.904556 158.563889,131.482880 158.841034,133.061874 
z"/>
<path fill="#B9A4DE" opacity="1.000000" stroke="none" 
	d="
M43.509590,77.190506 
	C43.941998,95.746704 44.001175,114.523491 44.055920,133.791107 
	C43.697468,133.441071 43.035267,132.600372 43.034771,131.759277 
	C43.024090,113.643250 43.087376,95.527168 43.509590,77.190506 
z"/>
<path fill="#B7A3DD" opacity="1.000000" stroke="none" 
	d="
M158.920822,132.592422 
	C158.563889,131.482880 158.050552,129.904556 158.046005,128.324768 
	C157.998535,111.858597 158.032806,95.392181 158.091400,78.459343 
	C158.425476,79.508720 158.956665,81.023697 158.962189,82.540596 
	C159.022369,99.067879 159.000275,115.595467 158.920822,132.592422 
z"/>
<path fill="#DDD2EE" opacity="1.000000" stroke="none" 
	d="
M96.514832,160.784943 
	C96.088730,143.284561 96.031151,125.559792 96.006729,107.360481 
	C96.360184,107.714340 96.958977,108.542496 96.959724,109.371185 
	C96.975174,126.434265 96.922508,143.497421 96.514832,160.784943 
z"/>
<path fill="#DFD5EF" opacity="1.000000" stroke="none" 
	d="
M105.566711,107.087730 
	C105.963135,124.614799 105.965027,142.346725 105.914169,160.545471 
	C105.575035,160.326370 105.038467,159.640305 105.038872,158.954544 
	C105.048958,141.733887 105.115547,124.513237 105.566711,107.087730 
z"/>
</svg>