<svg xmlns="http://www.w3.org/2000/svg" version="1.1" xmlns:xlink="http://www.w3.org/1999/xlink" width="512" height="512" x="0" y="0" viewBox="0 0 24 24" style="enable-background:new 0 0 512 512" xml:space="preserve" class=""><g><path d="M7 6h9a1 1 0 0 0 .17 0A3 3 0 0 0 19 8c4 0 4-6 0-6a3 3 0 0 0-2.83 2A1 1 0 0 0 16 4H7a4.27 4.27 0 0 0-4 4.5A4.27 4.27 0 0 0 7 13h10a2.3 2.3 0 0 1 2 2.5 2.3 2.3 0 0 1-2 2.5H8a1 1 0 0 0-.17 0A3 3 0 0 0 5 16c-4 0-4 6 0 6a3 3 0 0 0 2.83-2A1 1 0 0 0 8 20h9a4.27 4.27 0 0 0 4-4.5 4.27 4.27 0 0 0-4-4.5H7a2.3 2.3 0 0 1-2-2.5A2.3 2.3 0 0 1 7 6zm12-2a1 1 0 1 1-1 1 1 1 0 0 1 1-1zM5 20a1 1 0 1 1 1-1 1 1 0 0 1-1 1z" fill="#5e5b5b" opacity="1" data-original="#000000" class=""></path></g></svg>