<svg xmlns="http://www.w3.org/2000/svg" width="512" height="512" viewBox="0 0 24 24">
  <!-- 기존 아이콘 -->
  <g>
    <path d="M7 6h9a1 1 0 0 0 .17 0A3 3 0 0 0 19 8c4 0 4-6 0-6a3 3 0 0 0-2.83 2A1 1 0 0 0 16 4H7a4.27 4.27 0 0 0-4 4.5A4.27 4.27 0 0 0 7 13h10a2.3 2.3 0 0 1 2 2.5 2.3 2.3 0 0 1-2 2.5H8a1 1 0 0 0-.17 0A3 3 0 0 0 5 16c-4 0-4 6 0 6a3 3 0 0 0 2.83-2A1 1 0 0 0 8 20h9a4.27 4.27 0 0 0 4-4.5 4.27 4.27 0 0 0-4-4.5H7a2.3 2.3 0 0 1-2-2.5A2.3 2.3 0 0 1 7 6zm12-2a1 1 0 1 1-1 1 1 1 0 0 1 1-1zM5 20a1 1 0 1 1 1-1 1 1 0 0 1-1 1z"
      fill="#5e5b5b" />
  </g>

  <!-- 회색 선 (먼저 선언되어 아래로 감) -->
  <line x1="3" y1="2" x2="21" y2="20" stroke="#5e5b5b" stroke-width="2" stroke-linecap="butt" />

  <!-- 흰색 선 (나중에 선언되어 위로 올라감) -->
  <line x1="3" y1="0" x2="21" y2="17" stroke="white" stroke-width="2" stroke-linecap="butt" />
</svg>
